<?xml version="1.0" standalone="no"?>
<!DOCTYPE svg PUBLIC "-//W3C//DTD SVG 1.1//EN" "http://www.w3.org/Graphics/SVG/1.1/DTD/svg11.dtd" >
<svg xmlns="http://www.w3.org/2000/svg" xmlns:xlink="http://www.w3.org/1999/xlink" version="1.1">
<metadata></metadata>
<defs>
<font id="orgon_slabregular" horiz-adv-x="1157" >
<font-face units-per-em="2048" ascent="1540" descent="-508" />
<missing-glyph horiz-adv-x="456" />
<glyph unicode="&#xfb01;" horiz-adv-x="1290" d="M82 907v70q0 45 45 45h102v164q0 210 86 287q83 77 263 77q103 0 149 -18q27 -9 27 -37q0 -40 -11 -86q-6 -29 -36 -29q-1 0 -45 6q-51 7 -74 7q-109 0 -144 -50q-32 -43 -32 -178v-143h616q49 0 49 -51v-813h97q45 0 45 -45v-72q0 -24 -9 -32.5t-34 -8.5h-375 q-41 0 -41 45v68q0 45 45 45h88v706h-481v-706h133q43 0 43 -47v-70q0 -24 -8.5 -32.5t-32.5 -8.5h-416q-41 0 -41 45v68q0 45 47 45h92v706h-102q-45 0 -45 43zM856 1352q0 118 113 118q110 0 110 -116q0 -117 -110 -117q-113 0 -113 115z" />
<glyph unicode="&#xfb02;" horiz-adv-x="1290" d="M82 905v72q0 45 45 45h102v143q0 204 103 299q100 86 330 86q128 0 239 -12q104 -8 143 -20q33 -14 33 -56v-1304h97q45 0 45 -47v-70q0 -24 -9 -32.5t-34 -8.5h-375q-41 0 -41 45v68q0 45 45 45h88v1218q-126 17 -234 17q-146 0 -200 -60q-47 -53 -47 -188v-123h209 q43 0 43 -43v-76q0 -41 -43 -41h-209v-704h133q43 0 43 -47v-70q0 -24 -8.5 -32.5t-32.5 -8.5h-416q-41 0 -41 45v68q0 45 47 45h92v704h-102q-45 0 -45 43z" />
<glyph unicode="&#xfb03;" horiz-adv-x="1972" d="M82 905v72q0 45 45 45h102v123q0 206 84 287q83 77 269 77q100 0 155 -18q27 -9 27 -41q0 -30 -10 -82q-10 -29 -37 -29q-1 0 -6 1t-17.5 2.5t-25.5 3.5q-46 6 -78 6q-107 0 -146 -54q-32 -49 -32 -178v-98h499v164q0 210 86 287q83 77 263 77q102 0 149 -18 q27 -9 27 -37q0 -29 -11 -86q-10 -29 -36 -29l-43 6q-51 7 -76 7q-109 0 -144 -50q-32 -43 -32 -178v-143h616q49 0 49 -51v-813h96q46 0 46 -45v-72q0 -24 -9 -32.5t-34 -8.5h-375q-41 0 -41 45v68q0 45 45 45h88v706h-481v-706h141q45 0 45 -47v-70q0 -24 -9 -32.5 t-34 -8.5h-424q-41 0 -41 45v68q0 45 47 45h92v704h-499v-704h141q45 0 45 -47v-70q0 -24 -9 -32.5t-34 -8.5h-424q-41 0 -41 45v68q0 45 47 45h92v704h-102q-45 0 -45 43zM1530 1352q0 127 119 127q118 0 118 -125q0 -65 -28.5 -94t-89.5 -29q-119 0 -119 121z" />
<glyph unicode="&#xfb04;" horiz-adv-x="1972" d="M82 905v72q0 45 45 45h102v123q0 206 84 287q83 77 269 77q100 0 155 -18q27 -9 27 -41q0 -30 -10 -82q-10 -29 -37 -29q-1 0 -6 1t-17.5 2.5t-25.5 3.5q-46 6 -78 6q-107 0 -146 -54q-32 -49 -32 -178v-98h499v143q0 204 103 299q100 86 329 86q129 0 240 -12 q104 -8 143 -20q33 -14 33 -56v-1304h96q46 0 46 -47v-70q0 -24 -9 -32.5t-34 -8.5h-375q-41 0 -41 45v68q0 45 45 45h88v1218q-126 17 -234 17q-146 0 -200 -60q-47 -53 -47 -188v-123h200q43 0 43 -43v-76q0 -41 -43 -41h-200v-704h141q45 0 45 -47v-70q0 -24 -9 -32.5 t-34 -8.5h-424q-41 0 -41 45v68q0 45 47 45h92v704h-499v-704h141q45 0 45 -47v-70q0 -24 -9 -32.5t-34 -8.5h-424q-41 0 -41 45v68q0 45 47 45h92v704h-102q-45 0 -45 43z" />
<glyph horiz-adv-x="0" />
<glyph horiz-adv-x="682" />
<glyph unicode=" "  horiz-adv-x="456" />
<glyph unicode="&#x09;" horiz-adv-x="456" />
<glyph unicode="&#xa0;" horiz-adv-x="456" />
<glyph unicode="!" horiz-adv-x="589" d="M209 102q0 61 33 93t86 32q116 0 116 -125q0 -120 -118 -120q-117 0 -117 120zM236 1378q0 68 55 68h92q55 0 55 -64q0 -143 -20 -872q0 -51 -53 -51h-54q-57 0 -57 55q-18 759 -18 864z" />
<glyph unicode="&#x22;" horiz-adv-x="729" d="M100 1403q0 63 58 63h88q53 0 53 -59q0 -51 -20 -442q-3 -50 -46 -50h-65q-46 0 -49 54q-19 334 -19 434zM430 1403q0 63 57 63h88q54 0 54 -59q0 -31 -21 -442q-3 -50 -45 -50h-65q-46 0 -49 54q-19 334 -19 434z" />
<glyph unicode="#" horiz-adv-x="1220" d="M84 463v86q0 41 45 41h188l35 225h-180q-41 0 -41 39v86q0 39 43 39h203l57 387q6 49 45 49h39q37 0 37 -35q0 -3 -0.5 -8t-1.5 -15.5t-2 -19.5l-55 -358h305l57 387q6 49 47 49h37q39 0 39 -35q0 -4 -3 -21.5t-3 -21.5l-55 -358h170q45 0 45 -41v-86q0 -37 -43 -37h-195 l-33 -225h180q43 0 43 -43v-86q0 -37 -40 -37h-207l-62 -412q-6 -45 -45 -45h-35q-39 0 -39 33q0 5 2 20.5t3 26.5l55 377h-305l-62 -412q-6 -45 -45 -45h-33q-41 0 -41 33q0 6 3 26l4 21l55 377h-168q-43 0 -43 39zM438 590h305l33 225h-303z" />
<glyph unicode="$" horiz-adv-x="1132" d="M113 336q0 43 41 43h65q38 0 41 -39l19 -150q113 -43 249 -43v457l-102 29q-285 79 -285 360q0 357 387 387v138q0 43 39 43h31q35 0 35 -43v-134q176 -3 295 -41q39 -12 39 -57v-229q0 -37 -41 -37h-66q-38 0 -41 37l-10 143q-99 20 -176 23v-457l67 -18 q174 -49 244 -125q72 -78 72 -234q0 -360 -383 -397v-142q0 -43 -35 -43h-33q-37 0 -37 43v138q-232 3 -368 63q-39 17 -39 60q-8 104 -8 225zM330 1010q0 -84 41 -132t157 -83v426q-108 -12 -153 -63.5t-45 -147.5zM633 152q112 18 154 71.5t42 145.5q0 78 -36 123 q-33 41 -160 83v-423z" />
<glyph unicode="%" horiz-adv-x="1748" d="M70 963q0 253 84 346q86 92 249 92q63 -1 105.5 -7.5t79.5 -24.5t59 -47t39 -77.5t24.5 -114.5t10.5 -159q0 -259 -76 -353q-73 -94 -254 -94q-174 0 -248 92q-73 91 -73 347zM211 963q0 -196 41 -261q40 -63 139 -63q74 0 110.5 23.5t55 93.5t21.5 213q0 195 -39 254 q-37 61 -142 61q-96 0 -143 -65q-43 -64 -43 -256zM475 -39q0 13 12 37l682 1413q20 45 50 45h38q27 0 27 -26q0 -12 -18 -50l-682 -1411q-21 -35 -47 -35h-37q-25 0 -25 27zM1030 422q0 253 84 346q86 92 250 92q95 -2 149 -17t93.5 -62t55 -129t19.5 -222q0 -259 -75 -352 q-73 -94 -254 -94q-174 0 -248 92t-74 346zM1174 422q0 -192 40 -256q43 -64 140 -64q100 0 141 62q41 65 41 264q0 189 -37 250t-139 61q-99 0 -143 -65q-43 -64 -43 -252z" />
<glyph unicode="&#x26;" horiz-adv-x="1484" d="M127 397q0 162 71.5 251t219.5 122q-225 58 -225 305q0 198 115 293.5t368 95.5q179 0 330 -45q34 -9 34 -51v-229q0 -37 -39 -37h-77q-38 0 -41 37l-11 135q-74 26 -180 26q-191 0 -248 -57q-59 -59 -59 -184q0 -104 63 -163.5t177 -59.5q30 0 40.5 -7.5t10.5 -31.5v-74 q0 -50 -53 -53q-167 -6 -233 -66t-66 -194q0 -143 86.5 -204t273.5 -61q194 0 279 54q86 56 86 227q0 70 -27 125q-50 -6 -199 -6q-61 0 -61 45v72q0 51 51 51q351 0 549 67q59 19 61 19q26 0 35 -31q27 -77 27 -96q0 -30 -47 -45q-113 -41 -246 -56q33 -56 33 -143 q0 -257 -135 -356t-408 -99q-293 0 -424 100.5t-131 323.5z" />
<glyph unicode="'" horiz-adv-x="411" d="M98 1391q0 75 68 75h84q63 0 63 -69q0 -58 -24 -445q-3 -57 -53 -57h-58q-30 0 -44 13.5t-15 47.5q-21 316 -21 435z" />
<glyph unicode="(" horiz-adv-x="651" d="M119 637q0 185 36 343.5t99 270.5q115 199 276 301q27 21 54 21q18 0 37 -19q16 -16 16 -28q0 -20 -12 -29q-338 -273 -338 -858q0 -385 110 -592q63 -109 103 -160q37 -46 125 -131q22 -14 7 -42t-44 -31q-17 0 -53 22q-62 38 -113 84t-107 121q-193 249 -196 727z" />
<glyph unicode=")" horiz-adv-x="651" d="M14 -270q0 18 13 28q338 273 338 858q0 386 -113 590q-53 101 -102 162q-43 54 -123 131q-23 14 -7.5 42.5t43.5 31.5q16 0 54 -23q64 -39 114 -84.5t103 -119.5q192 -239 198 -728q0 -185 -36.5 -344t-100.5 -270q-112 -198 -274 -301q-26 -20 -53 -20q-19 0 -37 18 q-17 17 -17 29z" />
<glyph unicode="*" horiz-adv-x="841" d="M55 1122q0 22 15 60q15 37 51 37q17 0 41 -9q138 -44 205 -73q-13 163 -13 229q0 37 14.5 51.5t57.5 14.5t57.5 -13t14.5 -49q0 -129 -9 -237q88 38 213 79q35 9 43 9q29 0 41 -37q15 -44 15 -60q0 -40 -41 -49q-110 -35 -238 -63l156 -191q14 -17 14 -37q0 -23 -26 -43 q-44 -30 -60 -30q-27 0 -45 24l-139 197q-114 -169 -135 -197q-14 -26 -41 -26q-21 0 -64 32q-24 18 -24 43q0 17 16 39q14 19 152 189q-64 13 -228 61q-43 15 -43 49z" />
<glyph unicode="+" horiz-adv-x="1435" d="M184 582v45q0 49 43 49h418v414q0 45 45 45h53q45 0 45 -45v-414h420q43 0 43 -49v-45q0 -50 -43 -50h-420v-417q0 -43 -45 -43h-53q-43 0 -43 43v417h-420q-43 0 -43 50z" />
<glyph unicode="," horiz-adv-x="454" d="M16 -283q0 14 17 41q114 164 114 412q0 68 62 68h90q55 0 55 -56q0 -130 -51 -270q-50 -145 -129 -227q-34 -37 -59 -37q-29 0 -64 24q-35 21 -35 45z" />
<glyph unicode="-" horiz-adv-x="634" d="M72 496v104q0 41 43 41h405q43 0 43 -41v-108q0 -37 -41 -37h-409q-41 0 -41 41z" />
<glyph unicode="." horiz-adv-x="456" d="M98 102q0 136 131 136q63 0 96 -31t33 -103q0 -133 -131 -133q-129 0 -129 131z" />
<glyph unicode="/" horiz-adv-x="796" d="M27 -176q0 22 8 41l586 1622q17 51 51 51h59q37 0 37 -29q0 -17 -14 -55l-582 -1614q-17 -45 -55 -45h-58q-32 0 -32 29z" />
<glyph unicode="0" d="M86 690q0 437 143 586q70 73 154.5 103t208.5 30q139 0 221.5 -28t142.5 -101q62 -74 88.5 -211t26.5 -364q-3 -149 -15 -259t-38.5 -192t-63.5 -135t-94 -85.5t-125 -46t-162 -14.5q-177 0 -278 58q-209 126 -209 659zM276 692q0 -228 35 -356q34 -119 92.5 -161 t171.5 -42q118 0 177 39q129 87 129 530q-2 117 -8.5 199t-21.5 144.5t-35.5 99.5t-55 60.5t-75.5 32t-101 9.5q-83 0 -137 -23t-93.5 -84t-57.5 -169.5t-20 -278.5z" />
<glyph unicode="1" d="M244 1206q0 23 26 35l262 127q37 16 74 16h70q45 0 45 -47v-1177h139q45 0 45 -47v-72q0 -24 -9 -32.5t-34 -8.5h-508q-41 0 -41 45v70q0 45 47 45h175v1026l-187 -84q-27 -12 -41 -12q-19 0 -28 22q-35 81 -35 94z" />
<glyph unicode="2" d="M82 39v70q0 30 24 51l93 73q72 57 106 86l94 76q97 85 103 90q129 124 172 172q127 139 127 324q0 135 -68.5 200.5t-228.5 65.5q-131 0 -234 -33q-65 -18 -69 -18q-24 0 -33 25q-21 53 -21 79q0 35 50 50q165 59 348 59q256 0 350 -104q96 -104 96 -293 q0 -235 -139 -400q-194 -222 -528 -452q68 2 557 2l10 139q3 41 43 41h63q41 0 41 -39v-256q0 -47 -41 -47h-872q-43 0 -43 39z" />
<glyph unicode="3" d="M115 61q0 28 26 93q9 24 35 24q7 0 70 -14q119 -29 239 -29q202 0 265 82q30 40 40.5 78t10.5 94q0 130 -73.5 189t-250.5 59h-49q-41 0 -41 47v72q0 47 41 47h51q285 0 285 217q0 126 -59 176.5t-213 50.5q-124 0 -218 -30q-68 -19 -69 -19q-24 0 -33 25q-22 61 -22 82 q0 33 49 51q151 53 329 53q253 0 338 -88q88 -85 88 -287q0 -116 -64.5 -194t-182.5 -107q138 -12 212 -99.5t74 -244.5q0 -213 -119 -314.5t-382 -101.5q-219 0 -326 39q-51 15 -51 49z" />
<glyph unicode="4" d="M80 403v68q0 42 18 72l455 790q29 51 68 51h96q35 0 35 -30q0 -23 -17 -54l-452 -772h438v314q0 51 45 51h92q43 0 43 -47v-318h168q49 0 49 -43v-84q0 -41 -49 -41h-168v-200h111q45 0 45 -47v-72q0 -24 -9 -32.5t-34 -8.5h-447q-39 0 -39 47v68q0 45 45 45h148v200 h-594q-47 0 -47 43z" />
<glyph unicode="5" d="M127 61q0 28 25 89q12 28 36 28q6 0 30 -6t36 -8q122 -29 254 -29q170 0 249 71.5t79 219.5q0 152 -73.5 210t-236.5 58q-126 0 -250 -37q-42 -10 -53 -10q-45 0 -45 51q0 44 2 56l47 573q3 57 56 57h645q45 0 45 -47v-245q0 -41 -41 -41h-64q-38 0 -41 39l-8 133h-438 l-31 -400q131 35 240 35q233 0 334 -94q102 -95 102 -332q0 -232 -127.5 -345.5t-390.5 -113.5q-218 0 -334 39q-47 15 -47 49z" />
<glyph unicode="6" d="M115 616q0 204 24 339t84 241q123 213 471 213q180 0 262 -31q29 -10 29 -39q0 -28 -16 -94q-6 -23 -28.5 -24.5t-63.5 10.5q-88 14 -170 14q-193 0 -291 -84q-43 -40 -66 -112q-27 -82 -35 -146q-7 -58 -14 -190q39 68 137 114q99 45 215 45q216 0 313 -103t97 -335 q0 -463 -471 -463q-162 0 -265.5 63.5t-157.5 207t-54 374.5zM307 504q0 -30 4 -92q27 -279 289 -279q148 0 216.5 72.5t68.5 230.5q0 139 -62.5 208t-199.5 69q-92 0 -173.5 -38t-119.5 -95q-23 -38 -23 -76z" />
<glyph unicode="7" d="M96 1087v252q0 45 45 45h850q45 0 45 -43v-51q0 -50 -14 -78q-331 -765 -483 -1163q-18 -53 -62 -53h-104q-45 0 -45 37q0 19 14 57q312 790 481 1135q-72 -2 -573 -2l-8 -133q-3 -39 -43 -39h-62q-41 0 -41 36z" />
<glyph unicode="8" d="M100 375q0 284 269 352q-226 59 -226 320q0 185 110 273.5t337 88.5q228 0 330 -84t102 -274q0 -257 -234 -322q269 -47 269 -346q0 -210 -116 -310t-363 -100q-250 0 -364 96t-114 306zM289 389q0 -141 71.5 -198.5t217.5 -57.5q144 0 217 60.5t73 195.5q0 250 -288 250 q-291 0 -291 -250zM328 1022q0 -113 67 -168t185 -55q101 0 178 53q78 57 78 176q0 115 -58.5 167t-197.5 52q-137 0 -194.5 -54.5t-57.5 -170.5z" />
<glyph unicode="9" d="M98 950q0 459 484 459q236 0 348 -145q112 -141 112 -498q0 -208 -23 -340.5t-83 -239.5q-60 -110 -174.5 -162.5t-292.5 -52.5q-186 0 -276 35q-27 9 -27 39q0 25 14 88q6 31 33 31q16 0 61 -10q111 -21 191 -21q128 0 201.5 34.5t117.5 104.5q26 39 41 109 q18 87 23 131q7 77 10 162q-38 -69 -137.5 -113.5t-216.5 -44.5q-216 0 -311 100t-95 334zM279 948q0 -139 60.5 -205.5t197.5 -66.5q201 0 292 129q23 38 23 84q0 2 -4 80q-18 278 -279 278q-148 0 -219 -72t-71 -227z" />
<glyph unicode=":" horiz-adv-x="495" d="M139 102q0 136 131 136q63 0 96 -31t33 -103q0 -133 -131 -133q-129 0 -129 131zM139 887q0 135 131 135q63 0 96 -30.5t33 -102.5q0 -133 -131 -133q-129 0 -129 131z" />
<glyph unicode=";" horiz-adv-x="495" d="M57 -283q0 14 17 41q114 164 114 412q0 68 62 68h90q55 0 55 -56q0 -130 -51 -270q-50 -145 -129 -227q-34 -37 -59 -37q-30 0 -64 24q-35 21 -35 45zM139 887q0 135 131 135q63 0 96 -30.5t33 -102.5q0 -133 -131 -133q-129 0 -129 131z" />
<glyph unicode="&#x3c;" horiz-adv-x="1435" d="M231 567v66q0 39 35 57l830 406q30 10 37 10q28 0 28 -41v-64q0 -37 -35 -55l-741 -342l741 -338q35 -15 35 -55v-68q0 -39 -31 -39q-21 0 -30 9l-834 397q-35 18 -35 57z" />
<glyph unicode="=" horiz-adv-x="1435" d="M184 375v43q0 47 43 47h981q43 0 43 -47v-43q0 -49 -43 -49h-981q-43 0 -43 49zM184 782v47q0 48 43 48h981q43 0 43 -48v-47q0 -47 -43 -47h-981q-43 0 -43 47z" />
<glyph unicode="&#x3e;" horiz-adv-x="1435" d="M274 143v64q0 40 35 55l742 346l-742 336q-35 15 -35 53v70q0 39 31 39q12 0 27 -6l833 -400q37 -18 37 -59v-63q0 -42 -35 -60l-835 -407q-21 -9 -27 -9q-31 0 -31 41z" />
<glyph unicode="?" horiz-adv-x="862" d="M84 1382q0 41 35 50q136 43 295 43q209 0 297 -80t88 -244q0 -126 -41 -203q-42 -79 -166 -160q-83 -56 -109 -92q-23 -33 -32 -106l-7 -101q-3 -30 -41 -30h-59q-41 0 -47 35q-4 54 -4 102q0 94 28.5 148.5t108.5 109.5q100 69 137 127t37 141q0 91 -48.5 134.5 t-162.5 43.5q-116 0 -209 -22q-36 -8 -45 -8q-32 0 -41 33q-14 55 -14 79zM242 102q0 131 125 131q122 0 122 -129t-124 -129q-123 0 -123 127z" />
<glyph unicode="@" horiz-adv-x="1650" d="M106 461q0 380 230 622q231 246 594 246q305 0 467 -147t162 -437q0 -250 -129 -438q-129 -184 -318 -184q-127 0 -133 102q-91 -108 -262 -108q-268 0 -268 260q0 139 55 276q60 145 153 226q107 94 291 94q111 0 176 -41l4 10q9 25 39 25h41q27 0 27 -25q0 -20 -6 -47 l-115 -530q-10 -52 -10 -82q0 -50 45 -50q38 0 88 29q97 66 152 197q55 134 55 280q0 494 -518 494q-305 0 -504 -217q-197 -218 -197 -555q0 -291 157 -448.5t456 -157.5q147 0 241 16q91 15 193 53q53 17 57 17q23 0 35 -37q6 -15 6 -31q0 -23 -47 -41q-219 -86 -489 -86 q-347 0 -537.5 184.5t-190.5 530.5zM582 401q0 -91 41.5 -132.5t130.5 -41.5q106 0 186 62q20 17 31 33q14 22 20 57l101 457q-51 32 -152 32q-130 0 -207 -71q-70 -64 -110 -176q-41 -112 -41 -220z" />
<glyph unicode="A" horiz-adv-x="1372" d="M6 47v68q0 45 47 45h70l452 1245q15 45 58 45h104q45 0 60 -45l450 -1245h74q45 0 45 -47v-72q0 -24 -9 -32.5t-34 -8.5h-397q-39 0 -39 47v68q0 45 45 45h119l-113 303h-510l-109 -303h125q45 0 45 -47v-72q0 -24 -9 -32.5t-34 -8.5h-399q-41 0 -41 47zM483 621h408 q-176 494 -207 589q-58 -189 -201 -589z" />
<glyph unicode="B" horiz-adv-x="1325" d="M106 47v68q0 45 46 45h100v1126h-105q-41 0 -41 47v68q0 45 46 45h483q103 0 211 -12q167 -17 246 -102t79 -245q0 -135 -51.5 -213.5t-163.5 -115.5q263 -62 263 -338q0 -293 -211 -375q-110 -45 -379 -45h-482q-41 0 -41 47zM442 160h201q177 0 250 28q129 52 129 244 q0 151 -131 209q-61 27 -213 27h-236v-508zM442 829h230q146 0 192 21q115 53 115 207q0 93 -34 138.5t-105 70.5q-50 20 -201 20h-197v-457z" />
<glyph unicode="C" horiz-adv-x="1243" d="M119 700q0 414 135 592q135 181 483 181q189 0 332 -31q51 -12 51 -56v-249q0 -39 -43 -39h-80q-40 0 -43 39l-10 153q-87 19 -225 19q-255 0 -336 -166q-38 -84 -53 -176.5t-15 -235.5q0 -121 7.5 -198.5t29.5 -155.5q35 -118 118 -179t230 -61q181 0 338 53 q43 14 59.5 14.5t26.5 -16.5q31 -73 31 -94q0 -30 -45 -47q-180 -74 -436 -74q-283 0 -420 162q-135 163 -135 565z" />
<glyph unicode="D" horiz-adv-x="1484" d="M106 47v68q0 45 46 45h100v1126h-105q-41 0 -41 47v66q0 47 48 47h473q247 0 374 -39q365 -105 365 -668q0 -280 -86 -448.5t-285 -241.5q-134 -49 -387 -49h-461q-41 0 -41 47zM442 160h195q194 0 297 47q125 58 179 189t54 343q0 203 -50.5 325.5t-168.5 174.5 q-103 47 -313 47h-193v-1126z" />
<glyph unicode="E" horiz-adv-x="1210" d="M106 47v68q0 45 46 45h100v1126h-105q-41 0 -41 47v68q0 45 46 45h905q41 0 41 -39v-260q0 -37 -41 -37h-82q-40 0 -43 39l-8 137h-482v-452h465q47 0 47 -43v-82q0 -39 -47 -39h-465v-510h514l15 151q3 39 43 39h82q41 0 41 -37q0 -57 -9 -268q-3 -45 -41 -45h-940 q-41 0 -41 47z" />
<glyph unicode="F" horiz-adv-x="1169" d="M106 45v70q0 45 46 45h100v1126h-107q-39 0 -39 47v68q0 45 46 45h890q39 0 39 -41v-258q0 -37 -51 -37h-72q-40 0 -43 37l-8 137h-465v-496h451q47 0 47 -45v-79q0 -41 -47 -41h-451v-463h148q43 0 43 -47v-72q0 -24 -8.5 -32.5t-32.5 -8.5h-445q-41 0 -41 45z" />
<glyph unicode="G" horiz-adv-x="1370" d="M119 700q0 410 141 592q141 181 492 181q230 0 356 -33q47 -12 47 -51v-254q0 -37 -39 -37h-84q-40 0 -43 37l-8 153q-85 21 -242 21q-203 0 -305 -107q-67 -76 -94 -192q-25 -107 -25 -257v-22q0 -121 8 -199t31 -155q35 -117 121.5 -178.5t239.5 -61.5q199 0 338 45 v385h-297q-41 0 -41 41v80q0 41 43 41h422q47 0 47 -49v-555q0 -59 -45 -76q-195 -76 -490 -76q-297 0 -434 162q-139 165 -139 565z" />
<glyph unicode="H" horiz-adv-x="1519" d="M106 45v72q0 43 46 43h100v1126h-105q-41 0 -41 47v68q0 45 46 45h393q43 0 43 -47v-72q0 -24 -8.5 -32.5t-32.5 -8.5h-105v-455h633v455h-104q-41 0 -41 47v68q0 45 47 45h391q45 0 45 -47v-72q0 -24 -9 -32.5t-34 -8.5h-102v-1126h100q45 0 45 -47v-72q0 -24 -9 -32.5 t-34 -8.5h-399q-41 0 -41 45v72q0 43 47 43h98v512h-633v-512h103q43 0 43 -47v-72q0 -24 -8.5 -32.5t-32.5 -8.5h-400q-41 0 -41 45z" />
<glyph unicode="I" horiz-adv-x="694" d="M106 47v68q0 45 46 45h100v1126h-105q-41 0 -41 47v68q0 45 46 45h393q43 0 43 -47v-72q0 -24 -8.5 -32.5t-32.5 -8.5h-105v-1126h103q43 0 43 -47v-72q0 -24 -8.5 -32.5t-32.5 -8.5h-400q-41 0 -41 47z" />
<glyph unicode="J" horiz-adv-x="677" d="M-14 -164q0 43 6 80q3 37 41 37q1 0 35 -1t45 -1q94 0 127 33q34 34 34 196v1106h-106q-41 0 -41 47v68q0 45 45 45h393q45 0 45 -47v-72q0 -24 -9 -32.5t-34 -8.5h-100v-1124q0 -207 -70 -283q-81 -90 -284 -90q-66 0 -93 6q-34 9 -34 41z" />
<glyph unicode="K" horiz-adv-x="1361" d="M106 47v68q0 45 46 45h100v1126h-105q-41 0 -41 47v68q0 45 46 45h393q43 0 43 -47v-72q0 -24 -8.5 -32.5t-32.5 -8.5h-105v-455h111q66 0 92 39l295 416h-74q-35 0 -35 47v68q0 45 46 45h380q25 0 34 -10.5t9 -36.5v-72q0 -25 -8 -33t-32 -8h-111l-379 -528l381 -563 q21 -35 68 -35h94q45 0 45 -47v-72q0 -24 -9 -32.5t-34 -8.5h-195q-76 0 -123 72l-368 563q-21 35 -80 35h-107v-510h103q43 0 43 -47v-72q0 -24 -8.5 -32.5t-32.5 -8.5h-400q-41 0 -41 47z" />
<glyph unicode="L" horiz-adv-x="1202" d="M106 47v68q0 45 46 45h100v1126h-105q-41 0 -41 45v72q0 43 46 43h411q25 0 34 -10.5t9 -36.5v-70q0 -26 -8 -34.5t-33 -8.5h-123v-1126h523l12 151q3 39 43 39h74q39 0 39 -37q0 -6 -1 -35.5t-2.5 -95.5t-3.5 -135q0 -47 -41 -47h-938q-41 0 -41 47z" />
<glyph unicode="M" horiz-adv-x="1785" d="M106 47v68q0 45 46 45h100v1126h-105q-41 0 -41 47v68q0 45 46 45h319q40 0 61 -43q327 -704 371 -813q2 6 361 815q15 41 59 41h307q45 0 45 -47v-72q0 -24 -9 -32.5t-34 -8.5h-92v-1126h96q45 0 45 -47v-72q0 -24 -9 -32.5t-34 -8.5h-399q-41 0 -41 47v68q0 45 47 45 h107q0 848 6 1065q-66 -184 -377 -858q-17 -39 -55 -39h-56q-38 0 -59 43q-298 661 -377 854q6 -341 6 -1065h103q45 0 45 -47v-72q0 -24 -9 -32.5t-34 -8.5h-398q-41 0 -41 47z" />
<glyph unicode="N" horiz-adv-x="1517" d="M106 47v68q0 45 46 45h100v1126h-105q-41 0 -41 47v68q0 45 46 45h239q36 0 55 -31q505 -774 662 -1050q-2 92 -2 921h-115q-41 0 -41 47v68q0 45 47 45h396q45 0 45 -47v-72q0 -24 -9 -32.5t-34 -8.5h-103v-1241q0 -49 -47 -49h-78q-44 0 -67 39q-566 885 -664 1055 q2 -106 2 -930h105q45 0 45 -47v-72q0 -24 -9 -32.5t-34 -8.5h-398q-41 0 -41 47z" />
<glyph unicode="O" horiz-adv-x="1431" d="M119 731q0 445 174 602q84 76 185.5 108t246.5 32q164 0 263 -29t175 -105q78 -77 113 -223t35 -383q0 -294 -68 -465q-66 -163 -190.5 -229t-345.5 -66q-159 0 -263 34.5t-180 117.5q-145 167 -145 606zM315 731q0 -367 103 -487q53 -60 119.5 -83.5t173.5 -23.5t173 22 t120 81q56 61 82 179.5t26 309.5q0 189 -21 301t-71 172q-48 61 -116 84t-187 23q-82 0 -141.5 -14t-111 -52t-83 -102.5t-49 -166.5t-17.5 -243z" />
<glyph unicode="P" horiz-adv-x="1331" d="M106 47v68q0 45 46 45h100v1126h-105q-41 0 -41 47v68q0 45 46 45h477q262 0 383 -47q207 -83 207 -373q0 -314 -269 -391q-100 -33 -311 -33h-197v-442h140q45 0 45 -47v-72q0 -24 -9 -32.5t-34 -8.5h-437q-41 0 -41 47zM442 758h211q163 0 240 30q127 50 127 232 q0 180 -125 235q-76 29 -252 29h-201v-526z" />
<glyph unicode="Q" horiz-adv-x="1431" d="M119 731q0 445 174 602q84 76 185.5 108t246.5 32q164 0 263 -29t175 -105q78 -77 113 -223t35 -383q0 -498 -207 -655l280 -180q21 -15 21 -33q0 -20 -59 -109q-12 -18 -31 -18q-14 0 -31 10l-373 248q-103 -23 -204 -23q-159 0 -263 34.5t-180 117.5q-145 167 -145 606 zM315 731q0 -367 103 -487q53 -60 119.5 -83.5t173.5 -23.5t173 22t120 81q56 61 82 179.5t26 309.5q0 189 -21 301t-71 172q-48 61 -116 84t-187 23q-82 0 -141.5 -14t-111 -52t-83 -102.5t-49 -166.5t-17.5 -243z" />
<glyph unicode="R" horiz-adv-x="1341" d="M106 47v68q0 45 46 45h100v1126h-105q-41 0 -41 47v68q0 45 46 45h464q264 0 371 -45q207 -83 207 -361q0 -314 -279 -387l240 -450q15 -27 26.5 -35t43.5 -8h69q43 0 43 -47v-72q0 -24 -9 -32.5t-34 -8.5h-151q-64 0 -89.5 15t-49.5 61l-277 542q-23 -2 -113 -2h-172 v-456h133q46 0 46 -47v-72q0 -24 -9 -32.5t-34 -8.5h-431q-41 0 -41 47zM442 774h191q169 0 239 33q125 49 125 223q0 178 -123 225q-76 29 -251 29h-181v-510z" />
<glyph unicode="S" horiz-adv-x="1167" d="M92 334q0 41 39 41h86q37 0 43 -39l16 -152q122 -43 281 -43q201 0 264 82q29 40 39 74t10 86q0 86 -47 139q-47 54 -207 96l-188 50q-155 42 -229 134.5t-74 250.5q0 208 122 314t382 106q205 0 342 -46q41 -15 41 -61v-238q0 -38 -39 -38h-82q-42 0 -45 40l-8 148 q-132 27 -224 27q-161 0 -226.5 -58t-65.5 -176q0 -92 45 -143q46 -52 186 -92l176 -48q191 -52 264 -135q74 -80 74 -247q0 -215 -122 -324t-392 -109q-246 0 -408 64q-40 15 -43 61q-10 215 -10 236z" />
<glyph unicode="T" horiz-adv-x="1226" d="M63 1147v250q0 49 46 49h1005q47 0 47 -47v-252q0 -37 -41 -37h-80q-38 0 -41 39l-10 135h-280v-1124h106q45 0 45 -47v-72q0 -24 -9 -32.5t-34 -8.5h-411q-41 0 -41 47v68q0 45 47 45h104v1124h-280l-9 -135q-3 -39 -43 -39h-80q-41 0 -41 37z" />
<glyph unicode="U" horiz-adv-x="1482" d="M78 1333v68q0 45 47 45h391q43 0 43 -47v-72q0 -24 -8.5 -32.5t-32.5 -8.5h-106v-770q0 -194 43 -264q70 -113 288 -113q229 0 293 107q47 77 47 264v776h-114q-41 0 -41 47v68q0 45 45 45h387q45 0 45 -47v-72q0 -24 -9 -32.5t-34 -8.5h-94v-708q0 -160 -13 -256 q-9 -86 -47 -152q-114 -199 -475 -199q-367 0 -467 213q-47 100 -47 389v713h-100q-41 0 -41 47z" />
<glyph unicode="V" horiz-adv-x="1361" d="M8 1333v68q0 45 45 45h396q45 0 45 -47v-72q0 -24 -9 -32.5t-34 -8.5h-119q287 -822 348 -1020q65 197 358 1020h-120q-41 0 -41 47v68q0 45 45 45h387q45 0 45 -47v-72q0 -24 -8.5 -32.5t-32.5 -8.5h-80l-449 -1243q-15 -47 -59 -47h-100q-45 0 -60 47l-438 1243h-78 q-41 0 -41 47z" />
<glyph unicode="W" horiz-adv-x="2021" d="M37 1333v68q0 45 47 45h395q45 0 45 -47v-72q0 -24 -9 -32.5t-34 -8.5h-112q80 -302 243 -995q130 482 306 1050q15 60 59 60h88q39 0 57 -55q243 -781 308 -1055q90 414 239 995h-119q-41 0 -41 47v68q0 45 47 45h381q45 0 45 -47v-72q0 -25 -8 -33t-32 -8h-82 l-326 -1243q-12 -47 -57 -47h-97q-44 0 -59 49l-303 1065q-74 -272 -320 -1067q-15 -47 -59 -47h-98q-46 0 -58 49l-317 1241h-88q-41 0 -41 47z" />
<glyph unicode="X" horiz-adv-x="1406" d="M20 47v68q0 45 46 45h88l421 585l-385 541h-90q-41 0 -41 47v68q0 45 47 45h400q45 0 45 -47v-72q0 -24 -9 -32.5t-34 -8.5h-80l287 -414l291 414h-93q-41 0 -41 47v68q0 45 46 45h380q45 0 45 -47v-72q0 -25 -8.5 -33t-31.5 -8h-86l-390 -549l414 -577h98q45 0 45 -47 v-72q0 -41 -45 -41h-419q-41 0 -41 47v68q0 45 45 45h84l-320 452l-319 -452h100q45 0 45 -47v-72q0 -24 -9 -32.5t-34 -8.5h-410q-41 0 -41 47z" />
<glyph unicode="Y" horiz-adv-x="1316" d="M8 1333v68q0 45 47 45h402q45 0 45 -47v-72q0 -24 -9 -32.5t-34 -8.5h-86q251 -401 293 -481q67 118 292 481h-92q-43 0 -43 47v68q0 45 47 45h394q45 0 45 -47v-72q0 -24 -8.5 -32.5t-32.5 -8.5h-94l-418 -661v-465h108q43 0 43 -47v-72q0 -24 -8.5 -32.5t-32.5 -8.5 h-420q-40 0 -40 47v68q0 45 45 45h112v461l-420 665h-94q-41 0 -41 47z" />
<glyph unicode="Z" horiz-adv-x="1255" d="M51 49v39q0 36 29 80l827 1116h-620l-8 -135q-3 -39 -43 -39h-78q-43 0 -43 37v250q0 49 45 49h936q27 0 38 -9.5t11 -37.5v-45q0 -59 -33 -103l-807 -1091h713l8 141q3 41 43 41h80q39 0 39 -39v-260q0 -43 -43 -43h-1041q-30 0 -41.5 11t-11.5 38z" />
<glyph unicode="[" horiz-adv-x="600" d="M164 -248v1751q0 41 35 41h327q31 0 31 -28v-41q0 -31 -31 -31h-207v-1632h207q31 0 31 -31v-37q0 -33 -31 -33h-327q-35 0 -35 41z" />
<glyph unicode="\" horiz-adv-x="796" d="M27 1509q0 29 36 29h60q34 0 51 -51l586 -1622q8 -19 8 -41q0 -29 -33 -29h-57q-40 0 -55 45l-582 1614q-14 38 -14 55z" />
<glyph unicode="]" horiz-adv-x="600" d="M41 -219q0 29 33 29h207v1634h-207q-33 0 -33 29v36q0 35 33 35h327q35 0 35 -43v-1751q0 -17 -10.5 -28t-24.5 -11h-327q-33 0 -33 29v41z" />
<glyph unicode="^" horiz-adv-x="1456" d="M281 608q0 14 8 27l342 715q17 32 51 32h92q34 0 51 -32l344 -715q9 -15 9 -27q0 -33 -41 -33h-66q-36 0 -51 35l-293 609l-289 -609q-15 -35 -53 -35h-66q-38 0 -38 33z" />
<glyph unicode="_" horiz-adv-x="1009" d="M0 -160h1010v-112h-1010v112z" />
<glyph unicode="`" horiz-adv-x="403" d="M-29 1516q0 28 37 28h142q36 0 59 -33l207 -260q14 -14 14 -34q0 -29 -35 -29h-94q-36 0 -65 29l-244 260q-21 15 -21 39z" />
<glyph unicode="a" horiz-adv-x="1144" d="M100 305q0 177 127 248q103 59 305 59q132 0 207 -10v84q0 89 -14 121q-35 80 -209 80q-112 0 -207 -21q-50 -12 -71 -12q-29 0 -35 29q-15 47 -15 75q0 36 35 48q139 45 324 45q231 0 309 -78q64 -64 64 -256v-559h108q45 0 45 -47v-70q0 -24 -9 -32.5t-34 -8.5h-237 q-42 0 -45 37l-5 57q-85 -117 -292 -117q-351 0 -351 328zM279 307q0 -91 48.5 -136.5t164.5 -45.5q135 0 204 57q27 27 33 39q10 27 10 68v176q-79 8 -184 8q-162 0 -227 -47q-49 -40 -49 -119z" />
<glyph unicode="b" horiz-adv-x="1202" d="M63 1419v68q0 45 46 45h231q24 0 33.5 -11.5t9.5 -41.5v-541q87 106 338 106q195 0 287 -119.5t92 -387.5q0 -169 -30 -277.5t-95 -167.5q-62 -56 -144 -79t-208 -23q-82 0 -158.5 21t-102.5 52l-2 -43q-3 -28 -49 -28h-65q-25 0 -35 12t-10 43v1327h-97q-41 0 -41 45z M383 195q25 -21 89.5 -37.5t123.5 -16.5q190 0 254 82q63 81 63 301q0 196 -53 279q-53 84 -201 84q-165 0 -243 -60q-24 -17 -27 -30q-6 -15 -6 -47v-555z" />
<glyph unicode="c" horiz-adv-x="976" d="M102 496q0 293 110.5 424t367.5 131q170 0 262 -27q37 -9 37 -53v-226q0 -36 -41 -36h-78q-38 0 -41 39l-8 135q-41 8 -148 8q-170 0 -229 -115q-45 -95 -45 -262q0 -179 45 -274q52 -111 217 -111q128 0 237 33q41 14 56 14q24 0 33 -24q22 -45 22 -74q0 -33 -33 -47 q-116 -58 -331 -58q-226 0 -329.5 120t-103.5 403z" />
<glyph unicode="d" horiz-adv-x="1216" d="M102 489q0 316 121 437q120 123 385 123q149 0 211 -39v364h-96q-41 0 -41 47v70q0 41 47 41h232q24 0 33.5 -10.5t9.5 -40.5v-1323h96q45 0 45 -45v-70q0 -25 -9 -34t-34 -9h-221q-26 0 -35.5 8t-14.5 31l-6 47q-85 -111 -317 -111q-201 0 -303.5 124t-102.5 390z M289 498q0 -193 63.5 -281t208.5 -88q146 0 223 57q25 16 31 43q4 20 4 54v569q-56 39 -203 39q-186 0 -258 -90q-69 -87 -69 -303z" />
<glyph unicode="e" horiz-adv-x="1073" d="M102 508q0 285 114.5 414t358.5 129q260 0 340 -146q40 -72 54 -153.5t14 -216.5q0 -52 -18 -64q-15 -12 -43 -12h-633q3 -192 76 -262q71 -68 227 -68q130 0 266 43q38 12 51 12q24 0 33 -24q21 -56 21 -78q0 -29 -33 -43q-141 -66 -355 -66q-259 0 -366 125t-107 410z M291 600h512q2 10 2 43q0 136 -50.5 196t-185.5 60q-145 0 -209 -73t-69 -226z" />
<glyph unicode="f" horiz-adv-x="700" d="M82 905v72q0 45 45 45h102v164q0 206 84 287q83 77 273 77q110 0 159 -18q27 -9 27 -41q0 -23 -12 -82q-6 -29 -37 -29q-1 0 -47 6q-54 7 -80 7q-117 0 -152 -54q-32 -40 -32 -178v-139h200q43 0 43 -43v-78q0 -39 -43 -39h-200v-704h139q45 0 45 -47v-70q0 -24 -9 -32.5 t-34 -8.5h-422q-41 0 -41 45v68q0 45 47 45h92v704h-102q-45 0 -45 43z" />
<glyph unicode="g" horiz-adv-x="1077" d="M88 -207q0 176 143 225q-75 13 -106 63t-31 144q0 160 127 213q-78 90 -78 254q0 359 412 359q103 0 195 -29h266q45 0 45 -45v-70q0 -43 -43 -43h-125q47 -59 47 -159q0 -369 -397 -369q-84 0 -150 16q-54 13 -61 13q-24 0 -43 -19q-31 -31 -31 -92q0 -71 53 -92 q30 -10 326 -10q245 0 330 -60q84 -60 84 -254q0 -178 -111 -260q-112 -86 -393 -86q-293 0 -383 90q-43 43 -59.5 91t-16.5 120zM264 -180q0 -94 63 -135t230 -41q190 0 252 45q65 47 65 143t-38 121q-39 28 -181 37q-14 2 -204 2q-44 0 -89 -10q-98 -27 -98 -162zM317 696 q0 -125 53 -171t175 -46q115 0 173 50t58 165t-54 161t-175 46q-116 0 -173 -46.5t-57 -158.5z" />
<glyph unicode="h" horiz-adv-x="1257" d="M76 45v68q0 45 47 45h92v1216h-96q-41 0 -41 47v66q0 45 47 45h225q47 0 47 -55v-551q28 60 127 90q105 31 211 31q136 0 199.5 -29.5t89.5 -97.5q18 -50 18 -201v-561h99q45 0 45 -45v-72q0 -24 -9 -32.5t-34 -8.5h-240q-43 0 -43 49v635q0 88 -12 125q-14 42 -50.5 58 t-121.5 16q-142 0 -227 -43q-27 -15 -39 -33q-13 -16 -13 -57v-592h99q45 0 45 -47v-70q0 -24 -9 -32.5t-34 -8.5h-381q-41 0 -41 45z" />
<glyph unicode="i" horiz-adv-x="622" d="M88 43v70q0 45 45 45h92v706h-96q-41 0 -41 43v70q0 45 45 45h234q43 0 43 -49v-815h96q45 0 45 -45v-72q0 -24 -9 -32.5t-34 -8.5h-379q-41 0 -41 43zM180 1352q0 127 119 127t119 -125q0 -65 -29 -94t-90 -29q-119 0 -119 121z" />
<glyph unicode="j" horiz-adv-x="579" d="M-51 -467q0 58 2 72q6 38 51 41q116 3 156 37q47 41 47 165v1016h-96q-41 0 -41 43v70q0 45 45 45h233q43 0 43 -49v-1116q0 -203 -70 -273q-88 -94 -309 -94q-61 0 -61 43zM160 1352q0 127 119 127q118 0 118 -125q0 -65 -28.5 -94t-89.5 -29q-119 0 -119 121z" />
<glyph unicode="k" horiz-adv-x="1136" d="M76 45v68q0 45 45 45h92v1216h-96q-41 0 -41 47v66q0 45 47 45h231q43 0 43 -47v-854h117q64 0 90 39l137 194h-39q-40 0 -40 43v70q0 45 45 45h352q45 0 45 -47v-70q0 -24 -10 -32.5t-35 -8.5h-121q-90 -126 -225 -299l245 -360q30 -47 80 -47h45q45 0 45 -45v-70 q0 -43 -47 -43h-135q-48 0 -76.5 20t-60.5 68l-227 354q-24 37 -82 37h-103v-321h97q45 0 45 -47v-70q0 -24 -9 -32.5t-34 -8.5h-379q-41 0 -41 45z" />
<glyph unicode="l" horiz-adv-x="622" d="M88 45v68q0 45 45 45h92v1216h-96q-41 0 -41 47v70q0 41 47 41h227q48 0 48 -51v-1323h96q45 0 45 -47v-70q0 -24 -9 -32.5t-34 -8.5h-379q-41 0 -41 45z" />
<glyph unicode="m" horiz-adv-x="1873" d="M88 45v68q0 45 45 45h92v706h-96q-24 0 -32.5 9.5t-8.5 33.5v70q0 45 45 45h221q49 0 52 -47l2 -49q28 60 127 90q102 31 198 31q131 0 194 -31t87 -101q32 61 126.5 96.5t215.5 35.5q132 0 195.5 -29.5t88.5 -97.5q19 -52 19 -201v-561h98q45 0 45 -47v-70 q0 -24 -9 -32.5t-34 -8.5h-239q-43 0 -43 51v633q0 86 -13 127q-14 39 -49 55.5t-115 16.5q-144 0 -215 -39q-17 -12 -36 -31q-15 -24 -15 -59v-596h119q45 0 45 -45v-72q0 -24 -9 -32.5t-34 -8.5h-262q-41 0 -41 51v633q0 92 -12 127q-12 39 -48 55.5t-116 16.5 q-126 0 -213 -41q-24 -11 -41 -31q-12 -15 -12 -59v-594h96q45 0 45 -47v-70q0 -24 -9 -32.5t-34 -8.5h-379q-41 0 -41 45z" />
<glyph unicode="n" horiz-adv-x="1267" d="M88 43v72q0 43 45 43h92v706h-96q-41 0 -41 43v70q0 45 45 45h225q45 0 48 -45l2 -51q27 60 131 90q105 31 209 31q132 0 196.5 -29.5t89.5 -97.5q21 -56 21 -201v-561h96q45 0 45 -47v-70q0 -24 -8.5 -32.5t-32.5 -8.5h-240q-45 0 -45 49v635q0 89 -12 127 q-12 39 -50.5 55.5t-117.5 16.5q-153 0 -229 -43q-33 -17 -41 -35q-10 -17 -10 -60v-587h96q45 0 45 -47v-70q0 -24 -9 -32.5t-34 -8.5h-379q-41 0 -41 43z" />
<glyph unicode="o" horiz-adv-x="1142" d="M102 514q0 323 138 436q66 55 145 78t193 23q122 0 200.5 -21.5t139.5 -75.5q122 -107 122 -434q0 -217 -55 -336q-53 -118 -149 -164.5t-269 -46.5q-121 0 -203 23.5t-143.5 83t-90 166.5t-28.5 268zM289 518q2 -101 13 -168.5t30 -112t53.5 -67.5t76.5 -32t107 -9 q80 0 126.5 14t84.5 52q76 70 76 315q0 229 -61 305q-58 76 -222 76q-150 0 -219 -78q-65 -77 -65 -295z" />
<glyph unicode="p" horiz-adv-x="1208" d="M63 907v70q0 45 48 45h219q50 0 53 -41l4 -47q88 110 330 110q201 0 295 -116q94 -113 94 -400q0 -313 -117 -430q-117 -114 -379 -114q-153 0 -221 45v-371h141q45 0 45 -47v-70q0 -24 -9 -32.5t-34 -8.5h-423q-41 0 -41 45v68q0 45 45 45h92v1206h-101q-41 0 -41 43z M389 180q67 -43 207 -43q187 0 256 84q68 86 68 303q0 200 -54.5 279.5t-203.5 79.5q-155 0 -238 -56q-21 -15 -31 -32q-4 -12 -4 -43v-572z" />
<glyph unicode="q" horiz-adv-x="1200" d="M102 494q0 329 129 446q65 58 149 81t212 23q170 0 250 -59l2 16q3 31 49 31h63q48 0 48 -51v-1323h94q45 0 45 -45v-70q0 -25 -8 -34t-31 -9h-426q-43 0 -43 43v70q0 45 45 45h139v403q-95 -77 -317 -77q-202 0 -301 122t-99 388zM289 504q0 -199 55.5 -280t202.5 -81 q154 0 239 43q27 17 29 29q4 12 4 41v586q-77 41 -209 41q-192 0 -256 -82q-65 -83 -65 -297z" />
<glyph unicode="r" horiz-adv-x="831" d="M88 45v68q0 45 45 45h92v706h-96q-41 0 -41 43v70q0 45 47 45h223q48 0 48 -49l2 -53q18 52 98 90q81 37 172 37q50 0 84 -9q29 -6 29 -37q0 -47 -11 -104q-6 -29 -37 -29q-3 0 -47.5 3t-58.5 3q-127 0 -182 -34q-27 -15 -37 -41q-8 -21 -8 -60v-581h135q43 0 43 -47v-70 q0 -24 -8.5 -32.5t-32.5 -8.5h-418q-41 0 -41 45z" />
<glyph unicode="s" horiz-adv-x="933" d="M90 272q0 43 41 43h70q42 0 45 -41l12 -116q91 -31 203 -31q122 0 169.5 36.5t47.5 108.5q0 55 -35.5 89t-134.5 57l-154 37q-124 30 -182.5 96.5t-58.5 187.5q0 310 397 310q166 0 274 -27q37 -9 37 -53v-199q0 -41 -41 -41h-69q-40 0 -43 37l-9 117q-74 14 -155 14 q-117 0 -163 -35t-46 -110q0 -59 33 -89.5t133 -54.5l145 -37q137 -36 195.5 -99.5t58.5 -188.5q0 -310 -401 -310q-209 0 -330 50q-30 15 -33 53q-6 114 -6 196z" />
<glyph unicode="t" horiz-adv-x="681" d="M51 901v76q0 45 43 45h107l6 227q3 51 41 51h94q37 0 37 -51v-227h201q43 0 43 -37v-84q0 -39 -43 -39h-199v-543q0 -101 22 -143q17 -39 95 -39q9 0 71 4q14 1 25.5 2t17 1.5t6.5 0.5q27 0 33 -28q8 -41 8 -74q0 -37 -38 -45q-75 -16 -181 -16q-136 0 -194 73 q-49 64 -49 226v581h-109q-37 0 -37 39z" />
<glyph unicode="u" horiz-adv-x="1267" d="M80 907v70q0 45 47 45h229q43 0 43 -49v-627q0 -86 15 -129q14 -42 53.5 -61t122.5 -19q156 0 221 45q26 15 39 37q12 21 12 76v569h-96q-41 0 -41 43v70q0 45 45 45h231q43 0 43 -45v-819h107q43 0 43 -47v-70q0 -24 -9 -32.5t-34 -8.5h-238q-46 0 -49 45l-2 51 q-37 -59 -126.5 -90t-203.5 -31q-132 0 -200.5 31.5t-93.5 99.5q-23 74 -23 211v547h-94q-41 0 -41 43z" />
<glyph unicode="v" horiz-adv-x="1089" d="M8 907v70q0 45 45 45h353q45 0 45 -47v-70q0 -24 -10 -32.5t-35 -8.5h-99q210 -566 236 -649l243 649h-108q-41 0 -41 43v70q0 45 45 45h354q45 0 45 -47v-70q0 -24 -10.5 -32.5t-36.5 -8.5h-61l-336 -827q-15 -41 -53 -41h-90q-41 0 -56 43l-329 825h-60q-41 0 -41 43z " />
<glyph unicode="w" horiz-adv-x="1632" d="M33 907v70q0 45 45 45h354q45 0 45 -47v-70q0 -24 -10 -32.5t-35 -8.5h-102q130 -450 170 -616q68 223 227 680q21 59 61 59h72q35 0 55 -57q153 -421 238 -682q50 204 162 616h-111q-41 0 -41 43v70q0 45 45 45h346q45 0 45 -47v-70q0 -24 -10 -32.5t-35 -8.5h-63 l-238 -825q-12 -43 -55 -43h-90q-40 0 -55 45q-160 461 -234 696q-51 -167 -237 -698q-12 -43 -58 -43h-84q-45 0 -57 45l-242 823h-67q-41 0 -41 43z" />
<glyph unicode="x" horiz-adv-x="1091" d="M14 45v68q0 45 47 45h70l285 366l-260 340h-74q-41 0 -41 43v70q0 45 45 45h358q43 0 43 -47v-70q0 -24 -10 -32.5t-35 -8.5h-69l98 -133q81 -107 88 -119l195 252h-82q-41 0 -41 43v70q0 45 45 45h325q43 0 43 -47v-70q0 -24 -10 -32.5t-35 -8.5h-67l-260 -334l286 -372 h74q45 0 45 -47v-70q0 -41 -45 -41h-391q-41 0 -41 45v68q0 45 45 45h96l-213 280q-116 -146 -217 -280h95q45 0 45 -47v-70q0 -24 -9 -32.5t-34 -8.5h-353q-41 0 -41 45z" />
<glyph unicode="y" horiz-adv-x="1089" d="M8 907v70q0 45 45 45h340q45 0 45 -47v-70q0 -24 -10 -32.5t-35 -8.5h-90q245 -628 250 -641q8 24 250 641h-105q-41 0 -41 43v70q0 45 45 45h334q45 0 45 -47v-70q0 -24 -10 -32.5t-35 -8.5h-47l-405 -989l-66 -154q-47 -103 -110 -163q-79 -70 -218 -70 q-89 0 -127 10.5t-38 38.5q0 43 18 92q9 25 33 25q2 0 17.5 -2t37.5 -4t39 -2q68 0 104 22q40 27 93 135q16 36 61 148l27 65l-346 848h-60q-41 0 -41 43z" />
<glyph unicode="z" horiz-adv-x="997" d="M68 43v41q0 33 28 72l187 233l235 299q96 121 105 131q13 15 22 27.5t12 15.5h-403l-6 -110q-3 -37 -43 -37h-70q-41 0 -41 37v221q0 49 43 49h729q43 0 43 -41v-47q0 -38 -37 -84q-443 -555 -555 -690h463l15 114q3 37 43 37h67q41 0 41 -39q0 -54 -6 -229 q0 -43 -43 -43h-786q-43 0 -43 43z" />
<glyph unicode="{" horiz-adv-x="665" d="M45 610v29q0 37 31 43q93 17 132.5 75t39.5 179v285q0 161 51 229q76 104 295 104q41 0 41 -41v-22q0 -41 -37 -41q-133 -9 -168 -68q-27 -46 -27 -153v-299q0 -138 -43 -203.5t-143 -97.5q96 -24 141 -91t45 -202v-313q0 -120 33 -164q39 -51 170 -54q29 0 29 -41v-30 q0 -35 -37 -35q-125 0 -193.5 19t-105.5 69q-51 68 -51 221v309q0 128 -39 185t-129 69q-35 6 -35 39z" />
<glyph unicode="|" horiz-adv-x="481" d="M164 -256v1759q0 47 45 47h70q38 0 38 -45v-1761q0 -47 -43 -47h-67q-43 0 -43 47z" />
<glyph unicode="}" horiz-adv-x="665" d="M25 -238q0 41 34 41q135 9 170 68q25 45 25 154v299q0 138 43 203.5t143 97.5q-95 24 -140.5 91t-45.5 202v313q0 122 -33 164q-35 50 -168 53q-28 3 -28 41v31q0 34 34 34q127 0 195 -19t104 -69q54 -73 54 -221v-309q0 -129 38 -184.5t130 -69.5q34 -3 34 -39v-29 q0 -37 -32 -43q-92 -17 -131 -75t-39 -179v-284q0 -157 -54 -230q-76 -104 -292 -104q-41 0 -41 41v22z" />
<glyph unicode="~" horiz-adv-x="1435" d="M188 545q0 21 13 37q147 178 299 178q84 0 243 -90q115 -68 195 -68q102 0 190 117q23 29 43 29q17 0 52 -27q24 -21 24 -41q0 -21 -16 -43q-70 -95 -137 -137.5t-158 -42.5q-102 0 -240 78q-133 77 -202 77q-99 0 -193 -110q-21 -27 -39 -27q-24 0 -53 29q-21 15 -21 41 z" />
<glyph unicode="&#xa1;" horiz-adv-x="589" d="M143 924q0 123 121 123q115 0 115 -121q0 -125 -117 -125q-119 0 -119 123zM152 -356q0 109 18 874q3 51 55 51h54q54 0 57 -55q18 -759 18 -864q0 -68 -57 -68h-92q-53 0 -53 62z" />
<glyph unicode="&#xa2;" horiz-adv-x="1009" d="M135 508q0 268 93.5 395t308.5 144v135q0 43 38 43h31q35 0 35 -43v-131q172 -3 250 -27q37 -9 37 -49v-223q0 -37 -39 -37h-60q-40 0 -43 39l-10 137q-41 6 -135 10v-760q139 9 209 33q30 12 49 10.5t29 -24.5q16 -50 16 -76q0 -29 -33 -43q-84 -41 -270 -53v-138 q0 -43 -37 -43h-31q-36 0 -36 43v138q-207 6 -304.5 127t-97.5 393zM324 526q0 -187 45.5 -276.5t167.5 -106.5v750q-88 -15 -138 -68q-45 -48 -60 -114.5t-15 -184.5z" />
<glyph unicode="&#xa3;" horiz-adv-x="1185" d="M145 621v55q0 37 41 37h140q-58 183 -58 305q0 191 116 291t347 100q178 0 303 -41q35 -9 35 -51v-234q0 -36 -41 -36h-65q-38 0 -41 36l-11 144q-79 20 -186 20q-139 0 -200.5 -58.5t-61.5 -178.5q0 -114 59 -297h398q43 0 43 -37v-55q0 -37 -43 -37h-371 q26 -98 26 -166q0 -168 -163 -256h661q43 0 43 -39v-84q0 -39 -41 -39h-880q-43 0 -43 39v63q0 31 26 45q217 117 217 273q0 68 -35 164h-174q-41 0 -41 37z" />
<glyph unicode="&#xa4;" horiz-adv-x="1112" d="M113 297q0 19 16 35l104 106q-77 106 -77 242q0 131 77 240l-104 104q-16 16 -16 33q0 19 18 37l16 16q18 18 33 18q18 0 33 -18l102 -104q101 79 240 79q146 0 238 -77l104 102q18 18 33 18q18 0 33 -18l16 -16q16 -16 16 -35q0 -17 -16 -33l-102 -104q77 -103 77 -242 q0 -136 -77 -242l106 -106q14 -14 14 -33q0 -13 -16 -35l-16 -18q-17 -17 -33 -17t-33 17l-104 102q-100 -74 -240 -74q-135 0 -242 72l-96 -100q-19 -19 -35 -19q-18 0 -35 17l-18 20q-16 16 -16 33zM279 682q0 -127 77 -207q80 -80 199 -80t197 78q79 79 79 207 q0 127 -77 205t-199 78q-119 0 -197.5 -79.5t-78.5 -201.5z" />
<glyph unicode="&#xa5;" horiz-adv-x="1337" d="M35 1276v65q0 43 45 43h399q43 0 43 -45v-69q0 -25 -8 -33t-31 -8h-98q190 -296 291 -469q142 243 287 469h-97q-39 0 -39 47v63q0 45 45 45h390q45 0 45 -45v-69q0 -24 -8.5 -32.5t-32.5 -8.5h-103l-278 -432h180q41 0 41 -37v-33q0 -39 -41 -39h-244l-59 -94v-70h303 q41 0 41 -37v-34q0 -37 -41 -37h-303v-260h108q43 0 43 -45v-70q0 -24 -8.5 -32.5t-32.5 -8.5h-407q-39 0 -39 47v66q0 43 45 43h107v260h-302q-38 0 -38 37v32q0 39 38 39h302v70l-62 94h-240q-38 0 -38 39v33q0 37 38 37h175l-277 432h-102q-37 0 -37 47z" />
<glyph unicode="&#xa6;" horiz-adv-x="505" d="M164 10v535q0 47 45 47h70q38 0 38 -47v-535q0 -47 -43 -47h-67q-43 0 -43 47zM164 889v534q0 47 45 47h70q38 0 38 -47v-534q0 -47 -43 -47h-67q-43 0 -43 47z" />
<glyph unicode="&#xa7;" horiz-adv-x="1036" d="M88 573q0 116 59 188.5t158 98.5q-110 76 -110 242q0 47 9 89t34.5 85.5t65 74.5t105 50.5t150.5 19.5q181 0 285 -39q30 -12 30 -53v-219q0 -39 -40 -39h-68q-38 0 -41 39l-12 139q-87 19 -162 19q-182 0 -182 -158q0 -69 37 -109q43 -43 155 -96l131 -61 q156 -73 209 -142q51 -66 51 -190q0 -103 -55.5 -175.5t-144.5 -96.5q67 -45 96 -100.5t29 -141.5q0 -330 -400 -330q-197 0 -346 58q-33 11 -33 55v219q0 45 39 45h72q38 0 41 -37l8 -147q90 -33 219 -33q215 0 215 158q0 67 -41 108q-40 40 -168 101l-127 59 q-158 73 -215 139q-53 68 -53 180zM256 600q0 -55 28 -90t101 -72q95 -49 221 -104q13 -8 41 -8q22 0 35 8q43 19 71.5 64.5t28.5 99.5q0 63 -30.5 101.5t-110.5 76.5l-182 88q-24 12 -49 12q-19 0 -37 -6q-53 -14 -85 -58.5t-32 -111.5z" />
<glyph unicode="&#xa8;" horiz-adv-x="403" d="M-88 1352q0 116 108 116q113 0 113 -114q0 -115 -113 -115q-108 0 -108 113zM270 1352q0 116 109 116q113 0 113 -114q0 -115 -113 -115q-109 0 -109 113z" />
<glyph unicode="&#xa9;" horiz-adv-x="1699" d="M121 707q0 316 201 526q199 211 524 211q333 0 530 -209q199 -205 199 -528q0 -317 -201 -527q-200 -209 -526 -209t-526 209q-201 210 -201 527zM203 707q0 -286 176 -474q174 -186 469 -186t469 186q178 187 178 474q0 288 -178 475q-174 186 -471 186 q-291 0 -467 -188t-176 -473zM461 696q0 246 100.5 357.5t321.5 111.5q121 0 202 -20q37 -6 37 -49v-187q0 -35 -32 -35h-64q-32 0 -35 33l-10 125q-41 6 -98 6q-164 0 -217 -77q-54 -79 -54 -246q0 -174 55 -252t197 -78q106 0 191 29q33 10 45 10q17 0 26 -27 q15 -47 15 -61q0 -22 -29 -35q-110 -45 -272 -45q-191 0 -285 102.5t-94 337.5z" />
<glyph unicode="&#xaa;" horiz-adv-x="751" d="M74 729q0 99 73 148q55 38 205 38q74 0 123 -6v47q0 51 -8 64q-15 43 -123 43q-80 0 -145 -12q-8 0 -25.5 -3.5t-19.5 -3.5q-20 0 -23 21q-8 16 -8 61q0 25 22 31q88 27 220 27q154 0 206 -49q41 -41 41 -156v-330h56q37 0 37 -35v-43q0 -32 -33 -32h-156q-35 0 -35 28 l-2 33q-66 -72 -182 -72q-223 0 -223 201zM205 731q0 -51 28.5 -74.5t98.5 -23.5q78 0 117 31q26 14 26 57v100q-36 4 -104 4q-114 0 -140 -26q-26 -17 -26 -68z" />
<glyph unicode="&#xab;" horiz-adv-x="1013" d="M61.5 541q-1.5 22 18.5 47l258 319q39 45 70 45h112q29 0 29 -24q0 -21 -23 -51l-256 -334l258 -334q21 -27 21 -47q0 -27 -29 -27h-112q-31 0 -68 43l-252 307q-25 34 -26.5 56zM481 541q0 19 19 47l260 319q33 45 69 45h111q31 0 31 -24q0 -21 -23 -51l-256 -334 l256 -334q23 -26 23 -47q0 -27 -31 -27h-113q-30 0 -67 43l-252 307q-27 30 -27 56z" />
<glyph unicode="&#xac;" horiz-adv-x="1435" d="M166 582v45q0 49 43 49h979q43 0 43 -49v-512q0 -43 -43 -43h-49q-45 0 -45 43v417h-885q-43 0 -43 50z" />
<glyph unicode="&#xad;" horiz-adv-x="634" d="M72 506v84q0 41 43 41h405q43 0 43 -41v-88q0 -37 -41 -37h-409q-41 0 -41 41z" />
<glyph unicode="&#xae;" horiz-adv-x="1699" d="M121 707q0 316 201 526q199 211 524 211q333 0 530 -209q199 -205 199 -528q0 -317 -201 -527q-200 -209 -526 -209t-526 209q-201 210 -201 527zM203 707q0 -286 176 -474q174 -186 469 -186t469 186q178 187 178 474q0 288 -178 475q-174 186 -471 186 q-291 0 -467 -188t-176 -473zM483 315v39q0 39 35 39h70v651h-72q-33 0 -33 39v37q0 39 39 39h295q159 0 238 -29q123 -52 123 -227q0 -176 -152 -235l133 -250q9 -25 45 -25h39q35 0 35 -35v-47q0 -35 -35 -35h-104q-65 0 -92 56l-156 309q-12 -2 -68 -2h-96v-246h72 q32 0 32 -39v-43q0 -35 -32 -35h-283q-33 0 -33 39zM727 752h102q93 0 136 18q71 30 71 127q0 107 -67 131q-50 16 -146 16h-96v-292z" />
<glyph unicode="&#xaf;" horiz-adv-x="403" d="M-80 1280v86q0 41 43 41h477q43 0 43 -41v-88q0 -37 -41 -37h-479q-43 0 -43 39z" />
<glyph unicode="&#xb0;" horiz-adv-x="688" d="M63 1176q0 132 78.5 207t210.5 75q130 0 202.5 -73t72.5 -207q0 -132 -77.5 -207.5t-207.5 -75.5q-126 0 -202.5 74.5t-76.5 206.5zM164 1171q0 -91 49.5 -140.5t136.5 -49.5q85 0 131.5 51.5t46.5 143.5q0 96 -46.5 146t-133.5 50t-135.5 -52t-48.5 -149z" />
<glyph unicode="&#xb1;" horiz-adv-x="1435" d="M184 47v47q0 47 43 47h981q43 0 43 -47v-47q0 -47 -43 -47h-981q-43 0 -43 47zM184 778v45q0 47 43 47h418v400q0 45 45 45h53q45 0 45 -45v-400h420q43 0 43 -47v-45q0 -47 -43 -47h-420v-405q0 -43 -45 -43h-53q-43 0 -43 43v405h-420q-43 0 -43 47z" />
<glyph unicode="&#xb2;" horiz-adv-x="788" d="M57 887v53q0 24 19 37q260 188 352 280q86 83 86 193q0 149 -184 149q-76 0 -150 -18q-33 -10 -45 -10q-19 0 -22 16q-11 57 -11 70q0 22 33 31q95 32 225 32q163 0 229 -60t66 -183q0 -146 -92 -246q-127 -133 -315 -254q43 2 321 2l9 102q3 31 36 31h43q35 0 35 -35 v-180q0 -37 -41 -37h-563q-31 0 -31 27z" />
<glyph unicode="&#xb3;" horiz-adv-x="788" d="M82 897q0 33 14 74q3 16 25 16q15 0 45 -10q71 -14 156 -14q109 0 148.5 33t39.5 104q0 74 -44 105.5t-153 31.5h-30q-31 0 -31 33v55q0 33 31 33h30q172 0 172 121q0 68 -35 94t-128 26q-85 0 -140 -14q-37 -12 -47 -12q-13 0 -22 18q-9 34 -9 68q0 24 33 33 q98 28 215 28q168 0 221 -53q54 -54 54 -180q0 -145 -160 -180q186 -15 186 -207q0 -132 -75 -194t-250 -62q-127 0 -213 22q-33 9 -33 31z" />
<glyph unicode="&#xb4;" horiz-adv-x="403" d="M-27 1217q0 15 13 34l209 260q26 33 59 33h139q37 0 37 -28q0 -21 -18 -39l-246 -260q-29 -29 -62 -29h-98q-33 0 -33 29z" />
<glyph unicode="&#xb5;" horiz-adv-x="1230" d="M190 -373v1352q0 47 43 47h99q43 0 43 -47v-633q0 -88 14 -129q14 -42 54.5 -60t125.5 -18q150 0 240 41q31 11 41 25.5t10 52.5v721q0 47 45 47h96q43 0 43 -47v-934q0 -49 -49 -49h-86q-42 0 -45 43l-2 33q-84 -84 -311 -84q-124 0 -176 43v-404q0 -45 -43 -45h-99 q-43 0 -43 45z" />
<glyph unicode="&#xb6;" d="M94 942q0 93 15 166t53 138t100 108t160.5 67.5t230.5 24.5h267q55 0 55 -51v-1618q0 -39 -35 -39h-31q-35 0 -35 39v1569h-225v-1569q0 -39 -33 -39h-30q-35 0 -35 39v708q-234 0 -345.5 119.5t-111.5 337.5z" />
<glyph unicode="&#xb7;" horiz-adv-x="456" d="M98 551q0 135 131 135q63 0 96 -30.5t33 -102.5q0 -133 -131 -133q-129 0 -129 131z" />
<glyph unicode="&#xb8;" horiz-adv-x="403" d="M12 -449q0 36 8 60q9 31 39 31q2 0 6.5 -0.5t13 -1.5t15.5 -2q32 -7 64 -7q49 0 67.5 13.5t18.5 48.5q0 37 -17 52t-59 15q-4 0 -27 -1t-26 -1q-39 0 -39 37q0 23 8 64l31 161h125l-23 -139q111 -1 151 -46t40 -138q0 -195 -263 -195q-65 0 -102 11q-31 9 -31 38z" />
<glyph unicode="&#xb9;" horiz-adv-x="788" d="M168 1593q0 16 20 25l166 74q27 12 60 12h51q33 0 33 -33v-692h100q24 0 32.5 -8t8.5 -31v-41q0 -25 -6 -32t-29 -7h-375q-32 0 -32 41v39q0 39 41 39h116v584l-110 -50q-19 -8 -31 -8q-13 0 -20 17q-25 64 -25 71z" />
<glyph unicode="&#xba;" horiz-adv-x="749" d="M72 854q0 183 75 256.5t232 73.5q159 0 229 -64t70 -262q0 -187 -71 -260.5t-236 -73.5q-160 0 -229.5 73t-69.5 257zM213 856q0 -127 35.5 -171t126.5 -44q90 0 123 39q37 40 37 174q0 131 -33 170q-30 41 -125 41q-89 0 -126.5 -44.5t-37.5 -164.5z" />
<glyph unicode="&#xbb;" horiz-adv-x="1013" d="M43 160q0 21 23 51l256 334l-256 334q-23 26 -23 47q0 26 31 26h112q31 0 68 -43l252 -307q26 -29 26 -55q0 -20 -18 -47l-260 -320q-33 -45 -70 -45h-110q-31 0 -31 25zM465 160q0 23 22 51l256 334l-258 334q-20 26 -20 47q0 26 29 26h112q31 0 68 -43l252 -307 q26 -33 26 -55q0 -20 -18 -47l-258 -320q-39 -45 -70 -45h-112q-29 0 -29 25z" />
<glyph unicode="&#xbc;" horiz-adv-x="1748" d="M168 1274q0 15 20 24l166 74q27 12 60 12h51q33 0 33 -32v-693h100q24 0 32.5 -7.5t8.5 -30.5v-41q0 -25 -6 -32t-29 -7h-375q-32 0 -32 41v39q0 38 41 38h116v584l-110 -49q-19 -8 -31 -8q-14 0 -20 16q-25 64 -25 72zM453 -39q0 13 12 37l680 1413q20 45 49 45h41 q27 0 27 -24q0 -12 -21 -52l-680 -1411q-21 -35 -49 -35h-35q-24 0 -24 27zM924 248v51q0 27 14 47l289 467q22 31 47 31h76q15 0 21 -9t3 -20.5t-10 -21.5l-285 -453h254v164q0 35 31 35h74q30 0 30 -31v-168h97q34 0 34 -29v-65q0 -29 -34 -29h-97v-98h72q24 0 32.5 -8 t8.5 -31v-41q0 -25 -7 -32t-30 -7h-309q-33 0 -33 41v39q0 39 41 39h90v98h-375q-34 0 -34 31z" />
<glyph unicode="&#xbd;" horiz-adv-x="1748" d="M168 1274q0 15 20 24l166 74q27 12 60 12h51q33 0 33 -32v-693h100q24 0 32.5 -7.5t8.5 -30.5v-41q0 -25 -6 -32t-29 -7h-375q-32 0 -32 41v39q0 38 41 38h116v584l-110 -49q-19 -8 -31 -8q-14 0 -20 16q-25 64 -25 72zM444 -39q0 11 13 37l680 1413q20 45 49 45h41 q26 0 26 -24q0 -13 -20 -52l-680 -1411q-21 -35 -49 -35h-35q-25 0 -25 27zM1004 27v53q0 25 18 37q260 188 352 280q86 83 86 193q0 149 -184 149q-76 0 -150 -18q-33 -10 -45 -10q-19 0 -22 16q-10 52 -10 70q0 22 32 30q98 33 226 33q163 0 229 -60.5t66 -183.5 q0 -144 -93 -245q-127 -133 -315 -254q43 2 322 2l8 102q3 31 37 31h43q34 0 34 -35v-180q0 -37 -41 -37h-563q-30 0 -30 27z" />
<glyph unicode="&#xbe;" horiz-adv-x="1748" d="M156 578q0 32 14 73q3 17 25 17q12 0 45 -11q71 -14 155 -14q109 0 149 33t40 104q0 74 -44 106t-153 32h-31q-30 0 -30 32v56q0 32 30 32h31q172 0 172 121q0 68 -35.5 94.5t-128.5 26.5q-84 0 -139 -14q-41 -13 -47 -13q-13 0 -23 19q-8 31 -8 67q0 24 33 33 q101 29 215 29q168 0 221 -53t53 -181q0 -145 -159 -180q186 -15 186 -207q0 -132 -75.5 -194t-250.5 -62q-123 0 -213 23q-32 8 -32 31zM524 -39q0 11 13 37l680 1413q20 45 49 45h41q26 0 26 -24q0 -13 -20 -52l-680 -1411q-21 -35 -49 -35h-35q-25 0 -25 27zM987 248v51 q0 27 14 47l289 467q22 31 47 31h76q15 0 21 -9t3 -20.5t-10 -21.5l-284 -453h254v164q0 35 30 35h74q31 0 31 -31v-168h96q35 0 35 -29v-65q0 -29 -35 -29h-96v-98h72q24 0 32.5 -8t8.5 -31v-41q0 -25 -7 -32t-30 -7h-310q-32 0 -32 41v39q0 39 41 39h90v98h-375 q-35 0 -35 31z" />
<glyph unicode="&#xbf;" horiz-adv-x="862" d="M63 -125q0 124 41 201q43 82 166 162q83 56 107 90q26 36 35 108l6 101q3 30 41 30h59q41 0 47 -35q4 -54 4 -102q0 -94 -28.5 -148.5t-108.5 -109.5q-100 -69 -137 -127t-37 -141q0 -91 48.5 -134.5t162.5 -43.5q116 0 209 22q36 8 45 8q33 0 41 -32q14 -55 14 -80 q0 -41 -35 -50q-136 -43 -294 -43q-209 0 -297.5 80t-88.5 244zM373 922q0 129 125 129q123 0 123 -127q0 -131 -125 -131q-123 0 -123 129z" />
<glyph unicode="&#xc0;" horiz-adv-x="1372" d="M6 47v68q0 45 47 45h70l452 1245q15 45 58 45h104q45 0 60 -45l450 -1245h74q45 0 45 -47v-72q0 -24 -9 -32.5t-34 -8.5h-397q-39 0 -39 47v68q0 45 45 45h119l-113 303h-510l-109 -303h125q45 0 45 -47v-72q0 -24 -9 -32.5t-34 -8.5h-399q-41 0 -41 47zM338 1841 q0 27 37 27h151q28 0 72 -29l264 -215q23 -23 23 -39q0 -26 -33 -26h-104q-33 0 -72 22l-311 217q-27 15 -27 43zM483 621h408q-176 494 -207 589q-58 -189 -201 -589z" />
<glyph unicode="&#xc1;" horiz-adv-x="1372" d="M6 47v68q0 45 47 45h70l452 1245q15 45 58 45h104q45 0 60 -45l450 -1245h74q45 0 45 -47v-72q0 -24 -9 -32.5t-34 -8.5h-397q-39 0 -39 47v68q0 45 45 45h119l-113 303h-510l-109 -303h125q45 0 45 -47v-72q0 -24 -9 -32.5t-34 -8.5h-399q-41 0 -41 47zM483 621h408 q-176 494 -207 589q-58 -189 -201 -589zM494 1567q0 20 22 39l264 215q42 28 72 28h152q36 0 36 -26q0 -29 -26 -43l-314 -217q-38 -23 -69 -23h-105q-32 0 -32 27z" />
<glyph unicode="&#xc2;" horiz-adv-x="1372" d="M6 47v68q0 45 47 45h70l452 1245q15 45 58 45h104q45 0 60 -45l450 -1245h74q45 0 45 -47v-72q0 -24 -9 -32.5t-34 -8.5h-397q-39 0 -39 47v68q0 45 45 45h119l-113 303h-510l-109 -303h125q45 0 45 -47v-72q0 -24 -9 -32.5t-34 -8.5h-399q-41 0 -41 47zM330 1589 q0 24 14 35l213 207q47 41 74 41h112q33 0 68 -35l217 -215q12 -12 12 -33q0 -30 -41 -30h-88q-29 0 -69 30l-160 129l-158 -129q-40 -30 -69 -30h-88q-37 0 -37 30zM483 621h408q-176 494 -207 589q-58 -189 -201 -589z" />
<glyph unicode="&#xc3;" horiz-adv-x="1372" d="M6 47v68q0 45 47 45h70l452 1245q15 45 58 45h104q45 0 60 -45l450 -1245h74q45 0 45 -47v-72q0 -24 -9 -32.5t-34 -8.5h-397q-39 0 -39 47v68q0 45 45 45h119l-113 303h-510l-109 -303h125q45 0 45 -47v-72q0 -24 -9 -32.5t-34 -8.5h-399q-41 0 -41 47zM334 1602 q0 10 12 47q71 182 191 182q56 0 161 -57q86 -45 119 -45q52 0 86 73q17 39 51 39h50q36 0 36 -35q0 -21 -10 -51q-70 -186 -192 -186q-53 0 -160 55q-92 47 -127 47q-26 0 -42.5 -13.5t-35.5 -51.5q-14 -39 -51 -39h-51q-37 0 -37 35zM483 621h408q-176 494 -207 589 q-58 -189 -201 -589z" />
<glyph unicode="&#xc4;" horiz-adv-x="1372" d="M6 47v68q0 45 47 45h70l452 1245q15 45 58 45h104q45 0 60 -45l450 -1245h74q45 0 45 -47v-72q0 -24 -9 -32.5t-34 -8.5h-397q-39 0 -39 47v68q0 45 45 45h119l-113 303h-510l-109 -303h125q45 0 45 -47v-72q0 -24 -9 -32.5t-34 -8.5h-399q-41 0 -41 47zM379 1688 q0 116 108 116q113 0 113 -114q0 -115 -113 -115q-108 0 -108 113zM483 621h408q-176 494 -207 589q-58 -189 -201 -589zM772 1688q0 116 109 116q112 0 112 -114q0 -115 -112 -115q-109 0 -109 113z" />
<glyph unicode="&#xc5;" horiz-adv-x="1372" d="M6 47v68q0 45 47 45h70l452 1245q15 45 58 45h104q45 0 60 -45l450 -1245h74q45 0 45 -47v-72q0 -24 -9 -32.5t-34 -8.5h-397q-39 0 -39 47v68q0 45 45 45h119l-113 303h-510l-109 -303h125q45 0 45 -47v-72q0 -24 -9 -32.5t-34 -8.5h-399q-41 0 -41 47zM483 621h408 q-176 494 -207 589q-58 -189 -201 -589zM489 1698q0 93 54 147q56 53 145 53q91 0 143 -53t52 -147q0 -92 -54 -143.5t-147 -51.5q-89 0 -141 49q-52 52 -52 146zM567 1700q0 -59 31.5 -91t87.5 -32q115 0 115 125q0 123 -117 123q-55 0 -86 -32t-31 -93z" />
<glyph unicode="&#xc6;" horiz-adv-x="2037" d="M2 45v70q0 45 47 45h86l758 1126h-141q-41 0 -41 47v66q0 47 49 47h1126q39 0 39 -45v-254q0 -37 -39 -37h-84q-40 0 -43 39l-8 135h-479v-450h465q45 0 45 -43v-82q0 -39 -45 -39h-465v-510h514l14 151q3 39 43 39h82q41 0 41 -37q0 -114 -8 -270q-3 -43 -43 -43h-938 q-41 0 -41 47v68q0 45 45 45h100v313h-520l-213 -313h113q45 0 45 -47v-72q0 -24 -9 -32.5t-34 -8.5h-422q-39 0 -39 45zM657 633h424v645z" />
<glyph unicode="&#xc7;" horiz-adv-x="1243" d="M119 700q0 414 135 592q135 181 483 181q189 0 332 -31q51 -12 51 -56v-249q0 -39 -43 -39h-80q-40 0 -43 39l-10 153q-87 19 -225 19q-255 0 -336 -166q-38 -84 -53 -176.5t-15 -235.5q0 -121 7.5 -198.5t29.5 -155.5q35 -118 118 -179t230 -61q181 0 338 53 q43 14 59.5 14.5t26.5 -16.5q31 -73 31 -94q0 -30 -45 -47q-168 -68 -391 -74l-14 -90q117 -1 161.5 -49t44.5 -143q0 -209 -284 -209q-57 0 -109 10q-35 9 -35 43q0 17 13 64q8 32 41 32q3 0 22 -4t23 -4q34 -6 57 -6q53 0 72.5 14t19.5 50q0 37 -17.5 51t-62.5 14 q-5 0 -26 -1t-23 -1q-45 0 -45 39q0 25 8 61l25 133q-237 18 -354 185q-117 169 -117 538z" />
<glyph unicode="&#xc8;" horiz-adv-x="1210" d="M106 47v68q0 45 46 45h100v1126h-105q-41 0 -41 47v68q0 45 46 45h905q41 0 41 -39v-260q0 -37 -41 -37h-82q-40 0 -43 39l-8 137h-482v-452h465q47 0 47 -43v-82q0 -39 -47 -39h-465v-510h514l15 151q3 39 43 39h82q41 0 41 -37q0 -57 -9 -268q-3 -45 -41 -45h-940 q-41 0 -41 47zM279 1841q0 27 36 27h152q29 0 72 -29l264 -215q22 -22 22 -39q0 -26 -32 -26h-105q-33 0 -72 22l-311 217q-26 14 -26 43z" />
<glyph unicode="&#xc9;" horiz-adv-x="1210" d="M106 47v68q0 45 46 45h100v1126h-105q-41 0 -41 47v68q0 45 46 45h905q41 0 41 -39v-260q0 -37 -41 -37h-82q-40 0 -43 39l-8 137h-482v-452h465q47 0 47 -43v-82q0 -39 -47 -39h-465v-510h514l15 151q3 39 43 39h82q41 0 41 -37q0 -57 -9 -268q-3 -45 -41 -45h-940 q-41 0 -41 47zM459 1567q0 20 22 39l264 215q42 28 72 28h152q37 0 37 -26q0 -28 -27 -43l-313 -217q-38 -23 -70 -23h-104q-33 0 -33 27z" />
<glyph unicode="&#xca;" horiz-adv-x="1210" d="M106 47v68q0 45 46 45h100v1126h-105q-41 0 -41 47v68q0 45 46 45h905q41 0 41 -39v-260q0 -37 -41 -37h-82q-40 0 -43 39l-8 137h-482v-452h465q47 0 47 -43v-82q0 -39 -47 -39h-465v-510h514l15 151q3 39 43 39h82q41 0 41 -37q0 -57 -9 -268q-3 -45 -41 -45h-940 q-41 0 -41 47zM285 1589q0 24 14 35l213 207q47 41 74 41h112q33 0 68 -35l217 -215q12 -12 12 -33q0 -30 -41 -30h-88q-28 0 -69 30l-160 129l-158 -129q-41 -30 -69 -30h-88q-37 0 -37 30z" />
<glyph unicode="&#xcb;" horiz-adv-x="1210" d="M106 47v68q0 45 46 45h100v1126h-105q-41 0 -41 47v68q0 45 46 45h905q41 0 41 -39v-260q0 -37 -41 -37h-82q-40 0 -43 39l-8 137h-482v-452h465q47 0 47 -43v-82q0 -39 -47 -39h-465v-510h514l15 151q3 39 43 39h82q41 0 41 -37q0 -57 -9 -268q-3 -45 -41 -45h-940 q-41 0 -41 47zM334 1688q0 116 108 116q113 0 113 -114q0 -115 -113 -115q-108 0 -108 113zM727 1688q0 116 109 116q112 0 112 -114q0 -115 -112 -115q-109 0 -109 113z" />
<glyph unicode="&#xcc;" horiz-adv-x="694" d="M-8 1841q0 27 37 27h151q28 0 72 -29l264 -215q23 -23 23 -39q0 -26 -33 -26h-105q-32 0 -71 22l-312 217q-26 14 -26 43zM106 47v68q0 45 46 45h100v1126h-105q-41 0 -41 47v68q0 45 46 45h393q43 0 43 -47v-72q0 -24 -8.5 -32.5t-32.5 -8.5h-105v-1126h103q43 0 43 -47 v-72q0 -24 -8.5 -32.5t-32.5 -8.5h-400q-41 0 -41 47z" />
<glyph unicode="&#xcd;" horiz-adv-x="694" d="M106 47v68q0 45 46 45h100v1126h-105q-41 0 -41 47v68q0 45 46 45h393q43 0 43 -47v-72q0 -24 -8.5 -32.5t-32.5 -8.5h-105v-1126h103q43 0 43 -47v-72q0 -24 -8.5 -32.5t-32.5 -8.5h-400q-41 0 -41 47zM139 1585q0 19 23 39l264 215q44 29 72 29h151q37 0 37 -27 q0 -28 -27 -43l-313 -217q-36 -22 -70 -22h-104q-33 0 -33 26z" />
<glyph unicode="&#xce;" horiz-adv-x="694" d="M-8 1589q0 24 14 35l213 207q47 41 74 41h113q32 0 67 -35l217 -215q12 -12 12 -33q0 -30 -40 -30h-89q-29 0 -69 30l-160 129l-158 -129q-40 -30 -69 -30h-88q-37 0 -37 30zM106 47v68q0 45 46 45h100v1126h-105q-41 0 -41 47v68q0 45 46 45h393q43 0 43 -47v-72 q0 -24 -8.5 -32.5t-32.5 -8.5h-105v-1126h103q43 0 43 -47v-72q0 -24 -8.5 -32.5t-32.5 -8.5h-400q-41 0 -41 47z" />
<glyph unicode="&#xcf;" horiz-adv-x="694" d="M39 1688q0 116 108 116q113 0 113 -114q0 -115 -113 -115q-108 0 -108 113zM106 47v68q0 45 46 45h100v1126h-105q-41 0 -41 47v68q0 45 46 45h393q43 0 43 -47v-72q0 -24 -8.5 -32.5t-32.5 -8.5h-105v-1126h103q43 0 43 -47v-72q0 -24 -8.5 -32.5t-32.5 -8.5h-400 q-41 0 -41 47zM432 1688q0 116 109 116q112 0 112 -114q0 -115 -112 -115q-109 0 -109 113z" />
<glyph unicode="&#xd0;" horiz-adv-x="1484" d="M88 713v73q0 41 43 41h121v459h-105q-41 0 -41 47v66q0 47 48 47h473q247 0 374 -39q365 -105 365 -668q0 -280 -86 -448.5t-285 -241.5q-134 -49 -387 -49h-461q-41 0 -41 47v68q0 45 46 45h100v514h-121q-43 0 -43 39zM442 160h195q194 0 297 47q125 58 179 189t54 343 q0 203 -50.5 325.5t-168.5 174.5q-103 47 -313 47h-193v-459h338q43 0 43 -41v-75q0 -37 -45 -37h-336v-514z" />
<glyph unicode="&#xd1;" horiz-adv-x="1517" d="M106 47v68q0 45 46 45h100v1126h-105q-41 0 -41 47v68q0 45 46 45h239q36 0 55 -31q505 -774 662 -1050q-2 92 -2 921h-115q-41 0 -41 47v68q0 45 47 45h396q45 0 45 -47v-72q0 -24 -9 -32.5t-34 -8.5h-103v-1241q0 -49 -47 -49h-78q-44 0 -67 39q-566 885 -664 1055 q2 -106 2 -930h105q45 0 45 -47v-72q0 -24 -9 -32.5t-34 -8.5h-398q-41 0 -41 47zM434 1602q0 10 12 47q71 182 191 182q57 0 162 -57q86 -45 119 -45q52 0 86 73q17 39 51 39h49q37 0 37 -35q0 -18 -11 -51q-70 -186 -192 -186q-53 0 -160 55q-92 47 -127 47 q-26 0 -42.5 -13.5t-35.5 -51.5q-14 -39 -51 -39h-51q-37 0 -37 35z" />
<glyph unicode="&#xd2;" horiz-adv-x="1431" d="M119 731q0 445 174 602q84 76 185.5 108t246.5 32q164 0 263 -29t175 -105q78 -77 113 -223t35 -383q0 -294 -68 -465q-66 -163 -190.5 -229t-345.5 -66q-159 0 -263 34.5t-180 117.5q-145 167 -145 606zM315 731q0 -367 103 -487q53 -60 119.5 -83.5t173.5 -23.5t173 22 t120 81q56 61 82 179.5t26 309.5q0 189 -21 301t-71 172q-48 61 -116 84t-187 23q-82 0 -141.5 -14t-111 -52t-83 -102.5t-49 -166.5t-17.5 -243zM389 1841q0 27 37 27h152q28 0 71 -29l264 -215q23 -23 23 -39q0 -26 -33 -26h-104q-33 0 -72 22l-311 217q-27 15 -27 43z " />
<glyph unicode="&#xd3;" horiz-adv-x="1431" d="M119 731q0 445 174 602q84 76 185.5 108t246.5 32q164 0 263 -29t175 -105q78 -77 113 -223t35 -383q0 -294 -68 -465q-66 -163 -190.5 -229t-345.5 -66q-159 0 -263 34.5t-180 117.5q-145 167 -145 606zM315 731q0 -367 103 -487q53 -60 119.5 -83.5t173.5 -23.5t173 22 t120 81q56 61 82 179.5t26 309.5q0 189 -21 301t-71 172q-48 61 -116 84t-187 23q-82 0 -141.5 -14t-111 -52t-83 -102.5t-49 -166.5t-17.5 -243zM518 1585q0 19 23 39l264 215q43 29 72 29h151q37 0 37 -27q0 -28 -27 -43l-313 -217q-36 -22 -70 -22h-104q-33 0 -33 26z " />
<glyph unicode="&#xd4;" horiz-adv-x="1431" d="M119 731q0 445 174 602q84 76 185.5 108t246.5 32q164 0 263 -29t175 -105q78 -77 113 -223t35 -383q0 -294 -68 -465q-66 -163 -190.5 -229t-345.5 -66q-159 0 -263 34.5t-180 117.5q-145 167 -145 606zM315 731q0 -367 103 -487q53 -60 119.5 -83.5t173.5 -23.5t173 22 t120 81q56 61 82 179.5t26 309.5q0 189 -21 301t-71 172q-48 61 -116 84t-187 23q-82 0 -141.5 -14t-111 -52t-83 -102.5t-49 -166.5t-17.5 -243zM367 1589q0 24 14 35l213 207q47 41 74 41h112q33 0 68 -35l217 -215q12 -12 12 -33q0 -30 -41 -30h-88q-28 0 -69 30 l-160 129l-158 -129q-40 -30 -69 -30h-89q-36 0 -36 30z" />
<glyph unicode="&#xd5;" horiz-adv-x="1431" d="M119 731q0 445 174 602q84 76 185.5 108t246.5 32q164 0 263 -29t175 -105q78 -77 113 -223t35 -383q0 -294 -68 -465q-66 -163 -190.5 -229t-345.5 -66q-159 0 -263 34.5t-180 117.5q-145 167 -145 606zM315 731q0 -367 103 -487q53 -60 119.5 -83.5t173.5 -23.5t173 22 t120 81q56 61 82 179.5t26 309.5q0 189 -21 301t-71 172q-48 61 -116 84t-187 23q-82 0 -141.5 -14t-111 -52t-83 -102.5t-49 -166.5t-17.5 -243zM365 1602q0 10 12 47q71 182 190 182q57 0 162 -57q86 -45 119 -45q52 0 86 73q17 39 51 39h49q37 0 37 -35q0 -21 -10 -51 q-70 -186 -193 -186q-52 0 -159 55q-92 47 -127 47q-26 0 -42.5 -13.5t-35.5 -51.5q-14 -39 -51 -39h-52q-36 0 -36 35z" />
<glyph unicode="&#xd6;" horiz-adv-x="1431" d="M119 731q0 445 174 602q84 76 185.5 108t246.5 32q164 0 263 -29t175 -105q78 -77 113 -223t35 -383q0 -294 -68 -465q-66 -163 -190.5 -229t-345.5 -66q-159 0 -263 34.5t-180 117.5q-145 167 -145 606zM315 731q0 -367 103 -487q53 -60 119.5 -83.5t173.5 -23.5t173 22 t120 81q56 61 82 179.5t26 309.5q0 189 -21 301t-71 172q-48 61 -116 84t-187 23q-82 0 -141.5 -14t-111 -52t-83 -102.5t-49 -166.5t-17.5 -243zM412 1688q0 116 108 116q113 0 113 -114q0 -115 -113 -115q-108 0 -108 113zM805 1688q0 116 108 116q113 0 113 -114 q0 -115 -113 -115q-108 0 -108 113z" />
<glyph unicode="&#xd7;" horiz-adv-x="1435" d="M283 956q0 15 16 31l37 41q30 30 63 -2l318 -317l321 317q14 14 33 14q17 0 31 -14l35 -37q14 -14 14 -33q0 -23 -14 -34l-324 -316l317 -309q17 -24 17 -33q0 -16 -17 -33l-34 -38q-19 -19 -33 -19.5t-31 16.5l-317 310l-314 -314q-17 -14 -32 -14q-17 0 -31 14l-35 39 q-14 17 -14 31q0 21 14 35l318 315l-322 316q-16 16 -16 34z" />
<glyph unicode="&#xd8;" horiz-adv-x="1431" d="M115 0q0 14 12 29l102 141q-110 174 -110 561q0 445 174 602q84 76 185.5 108t246.5 32q268 0 389 -89l86 117q13 19 29 19q15 0 24 -9q41 -27 41 -43q0 -13 -10 -26l-96 -131q123 -166 123 -578q0 -294 -68 -465q-66 -163 -190.5 -229t-345.5 -66q-273 0 -406 115 l-90 -123q-9 -18 -29 -18q-12 0 -53 30q-14 11 -14 23zM315 731q0 -256 45 -381l639 877q-82 82 -282 82q-82 0 -141.5 -14t-111 -52t-83 -102.5t-49 -166.5t-17.5 -243zM416 246q83 -109 295 -109q107 0 173 22t120 81q56 61 82 179.5t26 309.5q0 281 -51 406z" />
<glyph unicode="&#xd9;" horiz-adv-x="1482" d="M78 1333v68q0 45 47 45h391q43 0 43 -47v-72q0 -24 -8.5 -32.5t-32.5 -8.5h-106v-770q0 -194 43 -264q70 -113 288 -113q229 0 293 107q47 77 47 264v776h-114q-41 0 -41 47v68q0 45 45 45h387q45 0 45 -47v-72q0 -24 -9 -32.5t-34 -8.5h-94v-708q0 -160 -13 -256 q-9 -86 -47 -152q-114 -199 -475 -199q-367 0 -467 213q-47 100 -47 389v713h-100q-41 0 -41 47zM393 1841q0 27 37 27h152q28 0 71 -29l265 -215q22 -22 22 -39q0 -26 -33 -26h-104q-33 0 -72 22l-311 217q-27 15 -27 43z" />
<glyph unicode="&#xda;" horiz-adv-x="1482" d="M78 1333v68q0 45 47 45h391q43 0 43 -47v-72q0 -24 -8.5 -32.5t-32.5 -8.5h-106v-770q0 -194 43 -264q70 -113 288 -113q229 0 293 107q47 77 47 264v776h-114q-41 0 -41 47v68q0 45 45 45h387q45 0 45 -47v-72q0 -24 -9 -32.5t-34 -8.5h-94v-708q0 -160 -13 -256 q-9 -86 -47 -152q-114 -199 -475 -199q-367 0 -467 213q-47 100 -47 389v713h-100q-41 0 -41 47zM547 1585q0 20 22 39l265 215q44 29 71 29h152q37 0 37 -27q0 -28 -27 -43l-313 -217q-36 -22 -70 -22h-104q-33 0 -33 26z" />
<glyph unicode="&#xdb;" horiz-adv-x="1482" d="M78 1333v68q0 45 47 45h391q43 0 43 -47v-72q0 -24 -8.5 -32.5t-32.5 -8.5h-106v-770q0 -194 43 -264q70 -113 288 -113q229 0 293 107q47 77 47 264v776h-114q-41 0 -41 47v68q0 45 45 45h387q45 0 45 -47v-72q0 -24 -9 -32.5t-34 -8.5h-94v-708q0 -160 -13 -256 q-9 -86 -47 -152q-114 -199 -475 -199q-367 0 -467 213q-47 100 -47 389v713h-100q-41 0 -41 47zM395 1589q0 23 15 35l213 207q47 41 73 41h113q33 0 68 -35l217 -215q12 -12 12 -33q0 -30 -41 -30h-88q-29 0 -70 30l-159 129l-158 -129q-41 -30 -70 -30h-88q-37 0 -37 30z " />
<glyph unicode="&#xdc;" horiz-adv-x="1482" d="M78 1333v68q0 45 47 45h391q43 0 43 -47v-72q0 -24 -8.5 -32.5t-32.5 -8.5h-106v-770q0 -194 43 -264q70 -113 288 -113q229 0 293 107q47 77 47 264v776h-114q-41 0 -41 47v68q0 45 45 45h387q45 0 45 -47v-72q0 -24 -9 -32.5t-34 -8.5h-94v-708q0 -160 -13 -256 q-9 -86 -47 -152q-114 -199 -475 -199q-367 0 -467 213q-47 100 -47 389v713h-100q-41 0 -41 47zM434 1688q0 116 109 116q112 0 112 -114q0 -115 -112 -115q-109 0 -109 113zM827 1688q0 116 109 116q113 0 113 -114q0 -115 -113 -115q-109 0 -109 113z" />
<glyph unicode="&#xdd;" horiz-adv-x="1316" d="M8 1333v68q0 45 47 45h402q45 0 45 -47v-72q0 -24 -9 -32.5t-34 -8.5h-86q251 -401 293 -481q67 118 292 481h-92q-43 0 -43 47v68q0 45 47 45h394q45 0 45 -47v-72q0 -24 -8.5 -32.5t-32.5 -8.5h-94l-418 -661v-465h108q43 0 43 -47v-72q0 -24 -8.5 -32.5t-32.5 -8.5 h-420q-40 0 -40 47v68q0 45 45 45h112v461l-420 665h-94q-41 0 -41 47zM532 1567q0 19 23 39l264 215q42 28 72 28h151q37 0 37 -26q0 -29 -26 -43l-314 -217q-38 -23 -69 -23h-105q-33 0 -33 27z" />
<glyph unicode="&#xde;" horiz-adv-x="1331" d="M109 47v68q0 45 47 45h96v1126h-102q-41 0 -41 47v68q0 45 47 45h391q45 0 45 -47v-72q0 -24 -9 -32.5t-34 -8.5h-107v-121h187q266 0 381 -47q209 -83 209 -370q0 -316 -273 -396q-109 -33 -305 -33h-199v-159h105q45 0 45 -47v-72q0 -24 -9 -32.5t-34 -8.5h-399 q-41 0 -41 47zM442 479h211q161 0 240 31q129 52 129 227q0 177 -127 236q-73 28 -252 28h-201v-522z" />
<glyph unicode="&#xdf;" horiz-adv-x="1169" d="M72 45v68q0 45 47 45h92v858q0 224 37 299q89 194 393 194q200 0 290.5 -86.5t90.5 -263.5q0 -158 -52.5 -240t-172.5 -118q167 -18 233 -112.5t66 -291.5q0 -223 -95 -319t-296 -96q-111 0 -175 18q-24 9 -24 39q0 44 8 80q6 33 33 33l9 -2q10 -1 25 -3.5t33 -4.5 t40 -3.5t40 -1.5q122 0 170.5 60.5t48.5 212.5q0 157 -63 223q-64 67 -252 67h-27q-39 0 -39 37v84q0 43 41 43h25q240 0 240 266q0 117 -51 171.5t-160 54.5q-159 0 -205 -101q-29 -63 -29 -215v-993q0 -47 -43 -47h-237q-41 0 -41 45z" />
<glyph unicode="&#xe0;" horiz-adv-x="1144" d="M100 305q0 177 127 248q103 59 305 59q132 0 207 -10v84q0 89 -14 121q-35 80 -209 80q-112 0 -207 -21q-50 -12 -71 -12q-29 0 -35 29q-15 47 -15 75q0 36 35 48q139 45 324 45q231 0 309 -78q64 -64 64 -256v-559h108q45 0 45 -47v-70q0 -24 -9 -32.5t-34 -8.5h-237 q-42 0 -45 37l-5 57q-85 -117 -292 -117q-351 0 -351 328zM246 1516q0 28 37 28h141q36 0 59 -33l207 -260q15 -15 15 -34q0 -29 -35 -29h-95q-36 0 -65 29l-244 260q-20 14 -20 39zM279 307q0 -91 48.5 -136.5t164.5 -45.5q135 0 204 57q27 27 33 39q10 27 10 68v176 q-79 8 -184 8q-162 0 -227 -47q-49 -40 -49 -119z" />
<glyph unicode="&#xe1;" horiz-adv-x="1144" d="M100 305q0 177 127 248q103 59 305 59q132 0 207 -10v84q0 89 -14 121q-35 80 -209 80q-112 0 -207 -21q-50 -12 -71 -12q-29 0 -35 29q-15 47 -15 75q0 36 35 48q139 45 324 45q231 0 309 -78q64 -64 64 -256v-559h108q45 0 45 -47v-70q0 -24 -9 -32.5t-34 -8.5h-237 q-42 0 -45 37l-5 57q-85 -117 -292 -117q-351 0 -351 328zM279 307q0 -91 48.5 -136.5t164.5 -45.5q135 0 204 57q27 27 33 39q10 27 10 68v176q-79 8 -184 8q-162 0 -227 -47q-49 -40 -49 -119zM401 1217q0 15 13 34l209 260q26 33 59 33h139q37 0 37 -28q0 -21 -18 -39 l-246 -260q-29 -29 -62 -29h-98q-33 0 -33 29z" />
<glyph unicode="&#xe2;" horiz-adv-x="1144" d="M100 305q0 177 127 248q103 59 305 59q132 0 207 -10v84q0 89 -14 121q-35 80 -209 80q-112 0 -207 -21q-50 -12 -71 -12q-29 0 -35 29q-15 47 -15 75q0 36 35 48q139 45 324 45q231 0 309 -78q64 -64 64 -256v-559h108q45 0 45 -47v-70q0 -24 -9 -32.5t-34 -8.5h-237 q-42 0 -45 37l-5 57q-85 -117 -292 -117q-351 0 -351 328zM225 1204q0 13 17 37l188 262q27 41 64 41h122q31 0 58 -37l190 -268q15 -18 15 -35q0 -28 -35 -28h-86q-31 0 -58 30l-151 187l-146 -185q-22 -32 -59 -32h-84q-35 0 -35 28zM279 307q0 -91 48.5 -136.5 t164.5 -45.5q135 0 204 57q27 27 33 39q10 27 10 68v176q-79 8 -184 8q-162 0 -227 -47q-49 -40 -49 -119z" />
<glyph unicode="&#xe3;" horiz-adv-x="1144" d="M100 305q0 177 127 248q103 59 305 59q132 0 207 -10v84q0 89 -14 121q-35 80 -209 80q-112 0 -207 -21q-50 -12 -71 -12q-29 0 -35 29q-15 47 -15 75q0 36 35 48q139 45 324 45q231 0 309 -78q64 -64 64 -256v-559h108q45 0 45 -47v-70q0 -24 -9 -32.5t-34 -8.5h-237 q-42 0 -45 37l-5 57q-85 -117 -292 -117q-351 0 -351 328zM209 1245q0 15 12 45q62 195 189 195q50 0 157 -58q74 -41 119 -41q25 0 37 12.5t31 57.5q14 39 49 39h61q35 0 35 -33q0 -10 -14 -59q-26 -91 -74.5 -141t-110.5 -50q-60 0 -165 54q-86 45 -107 45 q-26 0 -40.5 -12t-33.5 -50q-14 -39 -47 -39h-63q-35 0 -35 35zM279 307q0 -91 48.5 -136.5t164.5 -45.5q135 0 204 57q27 27 33 39q10 27 10 68v176q-79 8 -184 8q-162 0 -227 -47q-49 -40 -49 -119z" />
<glyph unicode="&#xe4;" horiz-adv-x="1144" d="M100 305q0 177 127 248q103 59 305 59q132 0 207 -10v84q0 89 -14 121q-35 80 -209 80q-112 0 -207 -21q-50 -12 -71 -12q-29 0 -35 29q-15 47 -15 75q0 36 35 48q139 45 324 45q231 0 309 -78q64 -64 64 -256v-559h108q45 0 45 -47v-70q0 -24 -9 -32.5t-34 -8.5h-237 q-42 0 -45 37l-5 57q-85 -117 -292 -117q-351 0 -351 328zM266 1352q0 116 109 116q112 0 112 -114q0 -115 -112 -115q-109 0 -109 113zM279 307q0 -91 48.5 -136.5t164.5 -45.5q135 0 204 57q27 27 33 39q10 27 10 68v176q-79 8 -184 8q-162 0 -227 -47q-49 -40 -49 -119z M625 1352q0 116 108 116q113 0 113 -114q0 -115 -113 -115q-108 0 -108 113z" />
<glyph unicode="&#xe5;" horiz-adv-x="1144" d="M100 305q0 177 127 248q103 59 305 59q132 0 207 -10v84q0 89 -14 121q-35 80 -209 80q-112 0 -207 -21q-50 -12 -71 -12q-29 0 -35 29q-15 47 -15 75q0 36 35 48q139 45 324 45q231 0 309 -78q64 -64 64 -256v-559h108q45 0 45 -47v-70q0 -24 -9 -32.5t-34 -8.5h-237 q-42 0 -45 37l-5 57q-85 -117 -292 -117q-351 0 -351 328zM279 307q0 -91 48.5 -136.5t164.5 -45.5q135 0 204 57q27 27 33 39q10 27 10 68v176q-79 8 -184 8q-162 0 -227 -47q-49 -40 -49 -119zM358 1372q0 94 54 148q56 53 145 53q91 0 143 -53.5t52 -147.5 q0 -91 -54 -142.5t-147 -51.5q-89 0 -141 49q-52 52 -52 145zM436 1374q0 -59 31.5 -91t87.5 -32q115 0 115 125q0 123 -117 123q-55 0 -86 -32t-31 -93z" />
<glyph unicode="&#xe6;" horiz-adv-x="1720" d="M102 307q0 171 123 242q114 63 324 63q129 0 203 -4v80q0 73 -17 119q-27 80 -207 80q-131 0 -233 -21q-50 -12 -70 -12q-22 0 -32 29q-11 37 -11 82q0 34 35 43q142 43 338 43q142 0 219.5 -36.5t99.5 -125.5q42 76 136 119t209 43q261 0 340 -144q40 -71 54.5 -154 t14.5 -221q0 -41 -18 -53q-10 -10 -43 -10h-637q1 -187 73 -261.5t232 -74.5q149 0 274 43q30 10 50 10q21 0 30 -24q20 -50 18.5 -80t-32.5 -43q-135 -66 -358 -66q-264 0 -367 136q-138 -132 -391 -132q-357 0 -357 330zM281 311q0 -94 50 -140t169 -46q89 0 170 24 t118 66q-36 85 -36 250q-70 6 -183 6q-184 0 -241 -45q-47 -41 -47 -115zM932 608h522q2 10 2 37q0 134 -55 199t-187 65q-150 0 -213.5 -72t-68.5 -229z" />
<glyph unicode="&#xe7;" horiz-adv-x="976" d="M102 496q0 293 110.5 424t367.5 131q170 0 262 -27q37 -9 37 -53v-226q0 -36 -41 -36h-78q-38 0 -41 39l-8 135q-41 8 -148 8q-170 0 -229 -115q-45 -95 -45 -262q0 -179 45 -274q52 -111 217 -111q128 0 237 33q41 14 56 14q24 0 33 -24q24 -49 22 -78.5t-33 -42.5 q-101 -49 -299 -58l-14 -92q110 -1 150 -46t40 -138q0 -195 -262 -195q-65 0 -102 11q-31 9 -31 38q0 36 8 60q9 31 39 31q2 0 6.5 -0.5t13 -1.5t15.5 -2q31 -7 64 -7q49 0 67.5 13.5t18.5 48.5q0 37 -17 52t-59 15q-4 0 -27 -1t-26 -1q-39 0 -39 37q0 23 8 64l22 121 q-175 19 -257.5 140.5t-82.5 375.5z" />
<glyph unicode="&#xe8;" horiz-adv-x="1073" d="M102 508q0 285 114.5 414t358.5 129q260 0 340 -146q40 -72 54 -153.5t14 -216.5q0 -52 -18 -64q-15 -12 -43 -12h-633q3 -192 76 -262q71 -68 227 -68q130 0 266 43q38 12 51 12q24 0 33 -24q21 -56 21 -78q0 -29 -33 -43q-141 -66 -355 -66q-259 0 -366 125t-107 410z M262 1516q0 28 37 28h141q37 0 60 -33l207 -260q14 -14 14 -34q0 -29 -35 -29h-94q-37 0 -66 29l-243 260q-21 15 -21 39zM291 600h512q2 10 2 43q0 136 -50.5 196t-185.5 60q-145 0 -209 -73t-69 -226z" />
<glyph unicode="&#xe9;" horiz-adv-x="1073" d="M102 508q0 285 114.5 414t358.5 129q260 0 340 -146q40 -72 54 -153.5t14 -216.5q0 -52 -18 -64q-15 -12 -43 -12h-633q3 -192 76 -262q71 -68 227 -68q130 0 266 43q38 12 51 12q24 0 33 -24q21 -56 21 -78q0 -29 -33 -43q-141 -66 -355 -66q-259 0 -366 125t-107 410z M291 600h512q2 10 2 43q0 136 -50.5 196t-185.5 60q-145 0 -209 -73t-69 -226zM401 1217q0 15 13 34l209 260q26 33 59 33h139q37 0 37 -28q0 -21 -18 -39l-246 -260q-29 -29 -62 -29h-98q-33 0 -33 29z" />
<glyph unicode="&#xea;" horiz-adv-x="1073" d="M102 508q0 285 114.5 414t358.5 129q260 0 340 -146q40 -72 54 -153.5t14 -216.5q0 -52 -18 -64q-15 -12 -43 -12h-633q3 -192 76 -262q71 -68 227 -68q130 0 266 43q38 12 51 12q24 0 33 -24q21 -56 21 -78q0 -29 -33 -43q-141 -66 -355 -66q-259 0 -366 125t-107 410z M246 1204q0 15 16 37l189 262q27 41 63 41h123q30 0 57 -37l191 -268q14 -17 14 -35q0 -28 -35 -28h-86q-30 0 -57 30l-152 187l-145 -185q-22 -32 -59 -32h-84q-35 0 -35 28zM291 600h512q2 10 2 43q0 136 -50.5 196t-185.5 60q-145 0 -209 -73t-69 -226z" />
<glyph unicode="&#xeb;" horiz-adv-x="1073" d="M102 508q0 285 114.5 414t358.5 129q260 0 340 -146q40 -72 54 -153.5t14 -216.5q0 -52 -18 -64q-15 -12 -43 -12h-633q3 -192 76 -262q71 -68 227 -68q130 0 266 43q38 12 51 12q24 0 33 -24q21 -56 21 -78q0 -29 -33 -43q-141 -66 -355 -66q-259 0 -366 125t-107 410z M268 1352q0 116 109 116q112 0 112 -114q0 -115 -112 -115q-109 0 -109 113zM291 600h512q2 10 2 43q0 136 -50.5 196t-185.5 60q-145 0 -209 -73t-69 -226zM627 1352q0 116 108 116q113 0 113 -114q0 -115 -113 -115q-108 0 -108 113z" />
<glyph unicode="&#xec;" horiz-adv-x="622" d="M-31 1516q0 28 37 28h141q37 0 60 -33l207 -260q14 -14 14 -34q0 -29 -35 -29h-94q-37 0 -66 29l-243 260q-21 15 -21 39zM88 43v70q0 45 45 45h92v706h-96q-41 0 -41 43v70q0 45 45 45h234q43 0 43 -49v-815h96q45 0 45 -45v-72q0 -24 -9 -32.5t-34 -8.5h-379 q-41 0 -41 43z" />
<glyph unicode="&#xed;" horiz-adv-x="622" d="M88 43v70q0 45 45 45h92v706h-96q-41 0 -41 43v70q0 45 45 45h234q43 0 43 -49v-815h96q45 0 45 -45v-72q0 -24 -9 -32.5t-34 -8.5h-379q-41 0 -41 43zM115 1217q0 16 12 34l209 260q26 33 59 33h140q36 0 36 -28q0 -21 -18 -39l-246 -260q-29 -29 -61 -29h-99 q-32 0 -32 29z" />
<glyph unicode="&#xee;" horiz-adv-x="622" d="M-27 1204q0 13 17 37l188 262q27 41 64 41h123q30 0 57 -37l190 -268q15 -18 15 -35q0 -28 -35 -28h-86q-30 0 -57 30l-152 187l-145 -185q-22 -32 -60 -32h-84q-35 0 -35 28zM88 43v70q0 45 45 45h92v706h-96q-41 0 -41 43v70q0 45 45 45h234q43 0 43 -49v-815h96 q45 0 45 -45v-72q0 -24 -9 -32.5t-34 -8.5h-379q-41 0 -41 43z" />
<glyph unicode="&#xef;" horiz-adv-x="622" d="M6 1352q0 116 109 116q112 0 112 -114q0 -115 -112 -115q-109 0 -109 113zM88 43v70q0 45 45 45h92v706h-96q-41 0 -41 43v70q0 45 45 45h234q43 0 43 -49v-815h96q45 0 45 -45v-72q0 -24 -9 -32.5t-34 -8.5h-379q-41 0 -41 43zM365 1352q0 116 108 116q113 0 113 -114 q0 -115 -113 -115q-108 0 -108 113z" />
<glyph unicode="&#xf0;" horiz-adv-x="1144" d="M102 514q0 313 138 426q66 54 143 76t186 22q92 0 170 -25t107 -77q-34 202 -129 305l-158 -100q-28 -20 -43.5 -18.5t-34.5 30.5q-24 34 -24 51t22 33l133 84q-105 60 -260 72q-37 3 -37 32q0 3 11 74q3 31 41 31q45 0 59 -2q208 -18 336 -105l145 97q20 14 35 14 t27 -18q33 -45 34.5 -63.5t-20.5 -33.5l-123 -78q104 -117 142 -307.5t38 -511.5q0 -317 -112 -432q-111 -117 -361 -117q-121 0 -203 23.5t-143.5 83t-90 166.5t-28.5 268zM289 516q0 -236 61 -309q65 -74 219 -74q80 0 127 13t84 49q76 70 76 313q0 225 -59 299t-219 74 q-150 0 -222 -78q-67 -76 -67 -287z" />
<glyph unicode="&#xf1;" horiz-adv-x="1267" d="M88 43v72q0 43 45 43h92v706h-96q-41 0 -41 43v70q0 45 45 45h225q45 0 48 -45l2 -51q27 60 131 90q105 31 209 31q132 0 196.5 -29.5t89.5 -97.5q21 -56 21 -201v-561h96q45 0 45 -47v-70q0 -24 -8.5 -32.5t-32.5 -8.5h-240q-45 0 -45 49v635q0 89 -12 127 q-12 39 -50.5 55.5t-117.5 16.5q-153 0 -229 -43q-33 -17 -41 -35q-10 -17 -10 -60v-587h96q45 0 45 -47v-70q0 -24 -9 -32.5t-34 -8.5h-379q-41 0 -41 43zM276 1245q0 13 13 45q62 195 188 195q51 0 158 -58q74 -41 119 -41q24 0 36 12.5t31 57.5q14 39 49 39h62 q35 0 35 -33q0 -6 -15 -59q-26 -91 -74.5 -141t-109.5 -50t-166 54q-86 45 -106 45q-26 0 -40.5 -12t-33.5 -50q-14 -39 -47 -39h-64q-35 0 -35 35z" />
<glyph unicode="&#xf2;" horiz-adv-x="1142" d="M102 514q0 323 138 436q66 55 145 78t193 23q122 0 200.5 -21.5t139.5 -75.5q122 -107 122 -434q0 -217 -55 -336q-53 -118 -149 -164.5t-269 -46.5q-121 0 -203 23.5t-143.5 83t-90 166.5t-28.5 268zM250 1516q0 28 37 28h141q36 0 59 -33l207 -260q15 -15 15 -34 q0 -29 -35 -29h-94q-37 0 -66 29l-244 260q-20 14 -20 39zM289 518q2 -101 13 -168.5t30 -112t53.5 -67.5t76.5 -32t107 -9q80 0 126.5 14t84.5 52q76 70 76 315q0 229 -61 305q-58 76 -222 76q-150 0 -219 -78q-65 -77 -65 -295z" />
<glyph unicode="&#xf3;" horiz-adv-x="1142" d="M102 514q0 323 138 436q66 55 145 78t193 23q122 0 200.5 -21.5t139.5 -75.5q122 -107 122 -434q0 -217 -55 -336q-53 -118 -149 -164.5t-269 -46.5q-121 0 -203 23.5t-143.5 83t-90 166.5t-28.5 268zM289 518q2 -101 13 -168.5t30 -112t53.5 -67.5t76.5 -32t107 -9 q80 0 126.5 14t84.5 52q76 70 76 315q0 229 -61 305q-58 76 -222 76q-150 0 -219 -78q-65 -77 -65 -295zM401 1217q0 15 13 34l209 260q26 33 59 33h139q37 0 37 -28q0 -21 -18 -39l-246 -260q-29 -29 -62 -29h-98q-33 0 -33 29z" />
<glyph unicode="&#xf4;" horiz-adv-x="1142" d="M102 514q0 323 138 436q66 55 145 78t193 23q122 0 200.5 -21.5t139.5 -75.5q122 -107 122 -434q0 -217 -55 -336q-53 -118 -149 -164.5t-269 -46.5q-121 0 -203 23.5t-143.5 83t-90 166.5t-28.5 268zM248 1204q0 15 16 37l189 262q27 41 63 41h123q30 0 57 -37l191 -268 q14 -17 14 -35q0 -28 -35 -28h-86q-30 0 -57 30l-152 187l-145 -185q-22 -32 -59 -32h-84q-35 0 -35 28zM289 518q2 -101 13 -168.5t30 -112t53.5 -67.5t76.5 -32t107 -9q80 0 126.5 14t84.5 52q76 70 76 315q0 229 -61 305q-58 76 -222 76q-150 0 -219 -78 q-65 -77 -65 -295z" />
<glyph unicode="&#xf5;" horiz-adv-x="1142" d="M102 514q0 323 138 436q66 55 145 78t193 23q122 0 200.5 -21.5t139.5 -75.5q122 -107 122 -434q0 -217 -55 -336q-53 -118 -149 -164.5t-269 -46.5q-121 0 -203 23.5t-143.5 83t-90 166.5t-28.5 268zM227 1245q0 13 13 45q62 195 188 195q51 0 158 -58q74 -41 119 -41 q24 0 36 12.5t31 57.5q14 39 49 39h62q35 0 35 -33q0 -6 -15 -59q-26 -91 -74.5 -141t-109.5 -50t-166 54q-86 45 -107 45q-26 0 -40 -12t-33 -50q-14 -39 -47 -39h-64q-35 0 -35 35zM289 518q2 -101 13 -168.5t30 -112t53.5 -67.5t76.5 -32t107 -9q80 0 126.5 14t84.5 52 q76 70 76 315q0 229 -61 305q-58 76 -222 76q-150 0 -219 -78q-65 -77 -65 -295z" />
<glyph unicode="&#xf6;" horiz-adv-x="1142" d="M102 514q0 323 138 436q66 55 145 78t193 23q122 0 200.5 -21.5t139.5 -75.5q122 -107 122 -434q0 -217 -55 -336q-53 -118 -149 -164.5t-269 -46.5q-121 0 -203 23.5t-143.5 83t-90 166.5t-28.5 268zM289 518q2 -101 13 -168.5t30 -112t53.5 -67.5t76.5 -32t107 -9 q80 0 126.5 14t84.5 52q76 70 76 315q0 229 -61 305q-58 76 -222 76q-150 0 -219 -78q-65 -77 -65 -295zM289 1352q0 116 108 116q113 0 113 -114q0 -115 -113 -115q-108 0 -108 113zM647 1352q0 116 109 116q112 0 112 -114q0 -115 -112 -115q-109 0 -109 113z" />
<glyph unicode="&#xf7;" horiz-adv-x="1435" d="M184 582v47q0 47 41 47h985q39 0 39 -47v-47q0 -50 -39 -50h-985q-41 0 -41 50zM625 256q0 100 96 100q90 0 90 -100q0 -104 -94 -104q-92 0 -92 104zM625 944q0 103 96 103q90 0 90 -103q0 -102 -94 -102q-92 0 -92 102z" />
<glyph unicode="&#xf8;" horiz-adv-x="1142" d="M102 514q0 323 138 436q67 56 146.5 78.5t193.5 22.5q183 0 278 -50l78 109q10 16 27 16q16 0 24 -8q35 -21 35 -39q0 -13 -8 -26l-80 -109q106 -118 106 -424q0 -217 -55 -336q-53 -118 -149 -164.5t-269 -46.5q-190 0 -293 62l-69 -94q-11 -18 -27 -16.5t-47 26.5 q-14 11 -14 22q0 14 12 29l72 98q-99 126 -99 414zM289 518q0 -166 30 -254l433 594q-56 33 -177 33q-150 0 -219 -78q-67 -76 -67 -295zM377 178q58 -49 192 -49q80 0 126.5 14t84.5 52q76 70 76 315q0 195 -39 274z" />
<glyph unicode="&#xf9;" horiz-adv-x="1267" d="M80 907v70q0 45 47 45h229q43 0 43 -49v-627q0 -86 15 -129q14 -42 53.5 -61t122.5 -19q156 0 221 45q26 15 39 37q12 21 12 76v569h-96q-41 0 -41 43v70q0 45 45 45h231q43 0 43 -45v-819h107q43 0 43 -47v-70q0 -24 -9 -32.5t-34 -8.5h-238q-46 0 -49 45l-2 51 q-37 -59 -126.5 -90t-203.5 -31q-132 0 -200.5 31.5t-93.5 99.5q-23 74 -23 211v547h-94q-41 0 -41 43zM276 1520q0 28 37 28h142q37 0 59 -32l207 -261q14 -14 14 -34q0 -29 -35 -29h-94q-36 0 -65 29l-244 260q-21 15 -21 39z" />
<glyph unicode="&#xfa;" horiz-adv-x="1267" d="M80 907v70q0 45 47 45h229q43 0 43 -49v-627q0 -86 15 -129q14 -42 53.5 -61t122.5 -19q156 0 221 45q26 15 39 37q12 21 12 76v569h-96q-41 0 -41 43v70q0 45 45 45h231q43 0 43 -45v-819h107q43 0 43 -47v-70q0 -24 -9 -32.5t-34 -8.5h-238q-46 0 -49 45l-2 51 q-37 -59 -126.5 -90t-203.5 -31q-132 0 -200.5 31.5t-93.5 99.5q-23 74 -23 211v547h-94q-41 0 -41 43zM455 1217q0 16 12 34l209 260q26 33 59 33h139q37 0 37 -28q0 -21 -18 -39l-246 -260q-29 -29 -61 -29h-99q-32 0 -32 29z" />
<glyph unicode="&#xfb;" horiz-adv-x="1267" d="M80 907v70q0 45 47 45h229q43 0 43 -49v-627q0 -86 15 -129q14 -42 53.5 -61t122.5 -19q156 0 221 45q26 15 39 37q12 21 12 76v569h-96q-41 0 -41 43v70q0 45 45 45h231q43 0 43 -45v-819h107q43 0 43 -47v-70q0 -24 -9 -32.5t-34 -8.5h-238q-46 0 -49 45l-2 51 q-37 -59 -126.5 -90t-203.5 -31q-132 0 -200.5 31.5t-93.5 99.5q-23 74 -23 211v547h-94q-41 0 -41 43zM291 1204q0 15 16 37l189 262q27 41 63 41h123q30 0 57 -37l191 -268q14 -17 14 -35q0 -28 -35 -28h-86q-30 0 -57 30l-152 187l-145 -185q-22 -32 -59 -32h-84 q-35 0 -35 28z" />
<glyph unicode="&#xfc;" horiz-adv-x="1267" d="M80 907v70q0 45 47 45h229q43 0 43 -49v-627q0 -86 15 -129q14 -42 53.5 -61t122.5 -19q156 0 221 45q26 15 39 37q12 21 12 76v569h-96q-41 0 -41 43v70q0 45 45 45h231q43 0 43 -45v-819h107q43 0 43 -47v-70q0 -24 -9 -32.5t-34 -8.5h-238q-46 0 -49 45l-2 51 q-37 -59 -126.5 -90t-203.5 -31q-132 0 -200.5 31.5t-93.5 99.5q-23 74 -23 211v547h-94q-41 0 -41 43zM324 1352q0 116 108 116q113 0 113 -114q0 -115 -113 -115q-108 0 -108 113zM682 1352q0 116 109 116q112 0 112 -114q0 -115 -112 -115q-109 0 -109 113z" />
<glyph unicode="&#xfd;" horiz-adv-x="1089" d="M8 907v70q0 45 45 45h340q45 0 45 -47v-70q0 -24 -10 -32.5t-35 -8.5h-90q245 -628 250 -641q8 24 250 641h-105q-41 0 -41 43v70q0 45 45 45h334q45 0 45 -47v-70q0 -24 -10 -32.5t-35 -8.5h-47l-405 -989l-66 -154q-47 -103 -110 -163q-79 -70 -218 -70 q-89 0 -127 10.5t-38 38.5q0 43 18 92q9 25 33 25q2 0 17.5 -2t37.5 -4t39 -2q68 0 104 22q40 27 93 135q16 36 61 148l27 65l-346 848h-60q-41 0 -41 43zM428 1217q0 16 12 34l209 260q26 33 60 33h139q37 0 37 -28q0 -20 -19 -39l-245 -260q-29 -29 -62 -29h-98 q-33 0 -33 29z" />
<glyph unicode="&#xfe;" horiz-adv-x="1208" d="M78 -387q0 45 47 45h90v1716h-94q-41 0 -41 45v68q0 45 47 45h221q51 0 51 -47v-551q88 110 330 110q202 0 293 -116q94 -113 94 -400q0 -313 -117 -430q-117 -114 -378 -114q-154 0 -222 45v-371h138q43 0 43 -47v-70q0 -24 -8.5 -32.5t-32.5 -8.5h-420q-41 0 -41 45v68 zM399 180q67 -43 207 -43q190 0 256 84q68 86 68 303q0 197 -53 277q-52 82 -205 82q-155 0 -238 -56q-22 -16 -28.5 -31.5t-6.5 -43.5v-572z" />
<glyph unicode="&#xff;" horiz-adv-x="1089" d="M8 907v70q0 45 45 45h340q45 0 45 -47v-70q0 -24 -10 -32.5t-35 -8.5h-90q245 -628 250 -641q8 24 250 641h-105q-41 0 -41 43v70q0 45 45 45h334q45 0 45 -47v-70q0 -24 -10 -32.5t-35 -8.5h-47l-405 -989l-66 -154q-47 -103 -110 -163q-79 -70 -218 -70 q-89 0 -127 10.5t-38 38.5q0 43 18 92q9 25 33 25q2 0 17.5 -2t37.5 -4t39 -2q68 0 104 22q40 27 93 135q16 36 61 148l27 65l-346 848h-60q-41 0 -41 43zM262 1352q0 116 109 116q112 0 112 -114q0 -115 -112 -115q-109 0 -109 113zM621 1352q0 116 108 116q113 0 113 -114 q0 -115 -113 -115q-108 0 -108 113z" />
<glyph unicode="&#x152;" horiz-adv-x="1980" d="M119 721q0 172 28.5 300t80 212.5t131.5 136t175.5 73t219.5 21.5q164 0 284 -18h787q43 0 43 -43v-254q0 -39 -41 -39h-84q-38 0 -41 37l-8 137h-480v-453h463q47 0 47 -45v-73q0 -43 -47 -43h-463v-510h512l15 151q3 39 43 39h82q41 0 41 -37q0 -120 -9 -270 q-3 -43 -47 -43h-804q-151 -20 -308 -20q-345 0 -481 161q-139 165 -139 580zM315 723q0 -177 24.5 -291t79.5 -177.5t129 -87.5t187 -24q161 0 289 25v1116q-85 16 -279 16q-110 0 -181.5 -23t-131.5 -83q-117 -117 -117 -471z" />
<glyph unicode="&#x153;" horiz-adv-x="1830" d="M102 514q0 323 138 436q67 56 146.5 78.5t193.5 22.5q160 0 248 -40.5t128 -142.5q95 183 375 183q257 0 338 -144q40 -71 54 -152t14 -216q0 -54 -19 -70q-10 -10 -43 -10h-637q3 -192 74 -260q75 -66 231 -66t275 43q33 10 49 10q22 0 31 -24q20 -50 18 -80t-33 -43 q-135 -66 -352 -66q-303 0 -391 187q-82 -187 -373 -187q-121 0 -203 23.5t-143.5 83t-90 166.5t-28.5 268zM285 518q3 -84 10 -144t22.5 -103.5t36 -69.5t54 -41.5t71 -21t92.5 -5.5q76 0 122.5 13t86.5 49q82 70 82 315q0 234 -59 305q-59 74 -228 74q-149 0 -221 -78 q-69 -75 -69 -293zM1040 604h523q2 8 2 45q0 136 -53.5 198t-188.5 62q-148 0 -213 -74t-70 -231z" />
<glyph unicode="&#x178;" horiz-adv-x="1316" d="M8 1333v68q0 45 47 45h402q45 0 45 -47v-72q0 -24 -9 -32.5t-34 -8.5h-86q251 -401 293 -481q67 118 292 481h-92q-43 0 -43 47v68q0 45 47 45h394q45 0 45 -47v-72q0 -24 -8.5 -32.5t-32.5 -8.5h-94l-418 -661v-465h108q43 0 43 -47v-72q0 -24 -8.5 -32.5t-32.5 -8.5 h-420q-40 0 -40 47v68q0 45 45 45h112v461l-420 665h-94q-41 0 -41 47zM365 1688q0 116 108 116q113 0 113 -114q0 -115 -113 -115q-108 0 -108 113zM758 1688q0 116 108 116q113 0 113 -114q0 -115 -113 -115q-108 0 -108 113z" />
<glyph unicode="&#x2c6;" horiz-adv-x="403" d="M-123 1204q0 13 17 37l188 262q27 41 63 41h123q31 0 58 -37l190 -268q14 -17 14 -35q0 -28 -34 -28h-86q-31 0 -58 30l-151 187l-146 -185q-22 -32 -59 -32h-84q-35 0 -35 28z" />
<glyph unicode="&#x2dc;" horiz-adv-x="403" d="M-141 1245q0 15 12 45q62 195 188 195q51 0 158 -58q74 -41 119 -41q24 0 36 12.5t31 57.5q14 39 50 39h61q35 0 35 -33q0 -10 -14 -59q-26 -91 -74.5 -141t-110.5 -50q-61 0 -166 54q-86 45 -106 45q-26 0 -40.5 -12t-33.5 -50q-14 -39 -47 -39h-63q-35 0 -35 35z" />
<glyph unicode="&#x2000;" horiz-adv-x="949" />
<glyph unicode="&#x2001;" horiz-adv-x="1898" />
<glyph unicode="&#x2002;" horiz-adv-x="949" />
<glyph unicode="&#x2003;" horiz-adv-x="1898" />
<glyph unicode="&#x2004;" horiz-adv-x="632" />
<glyph unicode="&#x2005;" horiz-adv-x="474" />
<glyph unicode="&#x2006;" horiz-adv-x="316" />
<glyph unicode="&#x2007;" horiz-adv-x="316" />
<glyph unicode="&#x2008;" horiz-adv-x="237" />
<glyph unicode="&#x2009;" horiz-adv-x="379" />
<glyph unicode="&#x200a;" horiz-adv-x="105" />
<glyph unicode="&#x2010;" horiz-adv-x="634" d="M72 496v104q0 41 43 41h405q43 0 43 -41v-108q0 -37 -41 -37h-409q-41 0 -41 41z" />
<glyph unicode="&#x2011;" horiz-adv-x="634" d="M72 496v104q0 41 43 41h405q43 0 43 -41v-108q0 -37 -41 -37h-409q-41 0 -41 41z" />
<glyph unicode="&#x2012;" horiz-adv-x="634" d="M72 496v104q0 41 43 41h405q43 0 43 -41v-108q0 -37 -41 -37h-409q-41 0 -41 41z" />
<glyph unicode="&#x2013;" horiz-adv-x="1120" d="M72 508v80q0 41 43 41h891q43 0 43 -41v-82q0 -37 -41 -37h-895q-41 0 -41 39z" />
<glyph unicode="&#x2014;" horiz-adv-x="1726" d="M72 508v80q0 41 43 41h1497q43 0 43 -41v-82q0 -23 -8.5 -30t-32.5 -7h-1501q-41 0 -41 39z" />
<glyph unicode="&#x2018;" horiz-adv-x="389" d="M55 1030q0 122 49 256q49 132 127 217q26 29 52 29t71 -31q25 -16 25 -37q0 -19 -17 -43q-110 -143 -110 -377q0 -65 -59 -65h-84q-54 0 -54 51z" />
<glyph unicode="&#x2019;" horiz-adv-x="389" d="M16 1046.5q-1 23.5 17 43.5q110 143 110 376q0 66 60 66h84q53 0 53 -51q0 -122 -49 -256q-49 -132 -127 -217q-26 -29 -51 -29q-27 0 -72 31q-24 13 -25 36.5z" />
<glyph unicode="&#x201a;" horiz-adv-x="391" d="M16 -289.5q-1 23.5 17 43.5q110 143 110 377q0 66 60 66h84q53 0 53 -52q0 -122 -49 -256q-49 -132 -127 -217q-25 -28 -51 -28q-29 0 -72 30q-24 13 -25 36.5z" />
<glyph unicode="&#x201c;" horiz-adv-x="724" d="M45 1030q0 122 49 256q49 132 127 217q26 29 51 29q27 0 72 -31q25 -16 25 -37q0 -19 -17 -43q-110 -143 -110 -377q0 -65 -60 -65h-84q-53 0 -53 51zM391 1030q0 122 49 256q49 132 127 217q26 29 51 29q27 0 72 -31q25 -16 25 -37q0 -19 -17 -43q-110 -143 -110 -377 q0 -65 -60 -65h-84q-53 0 -53 51z" />
<glyph unicode="&#x201d;" horiz-adv-x="724" d="M16 1046.5q-1 23.5 17 43.5q110 143 110 376q0 66 60 66h84q53 0 53 -51q0 -122 -49 -256q-49 -132 -127 -217q-26 -29 -51 -29q-27 0 -72 31q-24 13 -25 36.5zM362 1046.5q-1 23.5 17 43.5q110 143 110 376q0 66 60 66h84q53 0 53 -51q0 -122 -49 -256 q-49 -132 -127 -217q-26 -29 -51 -29q-27 0 -72 31q-24 13 -25 36.5z" />
<glyph unicode="&#x201e;" horiz-adv-x="727" d="M16 -289.5q-1 23.5 17 43.5q110 143 110 377q0 66 60 66h84q53 0 53 -52q0 -122 -49 -256q-49 -132 -127 -217q-25 -28 -51 -28q-29 0 -72 30q-24 13 -25 36.5zM362 -289.5q-1 23.5 17 43.5q110 143 110 377q0 66 60 66h84q53 0 53 -52q0 -122 -49 -256 q-49 -132 -127 -217q-25 -28 -51 -28q-29 0 -72 30q-24 13 -25 36.5z" />
<glyph unicode="&#x2022;" horiz-adv-x="720" d="M106 537q0 266 254 266q127 0 190.5 -62.5t63.5 -201.5q0 -267 -254 -267t-254 265z" />
<glyph unicode="&#x2026;" horiz-adv-x="1949" d="M240 102q0 136 131 136q63 0 96 -31t33 -103q0 -133 -131 -133q-129 0 -129 131zM844 102q0 136 131 136q63 0 96 -31t33 -103q0 -133 -131 -133q-129 0 -129 131zM1450 102q0 136 131 136q63 0 96 -31t33 -103q0 -133 -131 -133q-129 0 -129 131z" />
<glyph unicode="&#x202f;" horiz-adv-x="379" />
<glyph unicode="&#x2039;" horiz-adv-x="614" d="M61.5 541q-1.5 22 18.5 47l258 319q39 45 70 45h112q29 0 29 -24q0 -21 -23 -51l-256 -334l258 -334q21 -27 21 -47q0 -27 -29 -27h-112q-31 0 -68 43l-252 307q-25 34 -26.5 56z" />
<glyph unicode="&#x203a;" horiz-adv-x="614" d="M43 160q0 21 23 51l256 334l-256 334q-23 26 -23 47q0 26 31 26h112q31 0 68 -43l252 -307q26 -29 26 -55q0 -20 -18 -47l-260 -320q-33 -45 -70 -45h-110q-31 0 -31 25z" />
<glyph unicode="&#x205f;" horiz-adv-x="474" />
<glyph unicode="&#x20ac;" horiz-adv-x="1284" d="M137 545v33q0 36 39 36h135q0 150 2 166h-137q-39 0 -39 37v33q0 39 39 39h146q29 278 157.5 399t401.5 121q166 0 274 -27q41 -9 41 -49v-227q0 -37 -41 -37h-72q-40 0 -43 39l-8 133q-55 10 -158 10q-183 0 -265.5 -88t-100.5 -274h426q39 0 39 -39v-33q0 -37 -39 -37 h-436q-2 -31 -2 -166h438q39 0 39 -36v-33q0 -39 -39 -39h-426q18 -190 93.5 -278.5t250.5 -88.5q161 0 268 35q35 14 56 14q19 0 28 -24q21 -56 21 -88q0 -30 -41 -45q-142 -56 -361 -56q-236 0 -358 119q-124 121 -148 412h-141q-39 0 -39 39z" />
<glyph unicode="&#x2122;" horiz-adv-x="1687" d="M74 1280v133q0 33 32 33h510q39 0 39 -37v-133q0 -29 -32 -29h-33q-32 0 -35 29l-6 70h-127v-502h76q28 0 28 -31v-43q0 -27 -30 -27h-267q-28 0 -28 31v41q0 29 32 29h70v502h-125l-4 -70q-3 -29 -33 -29h-39q-28 0 -28 33zM737 774v41q0 29 33 29h68v502h-72 q-29 0 -29 30v39q0 31 33 31h203q23 0 33 -23q135 -286 172 -381l161 379q9 25 37 25h205q27 0 27 -31v-43q0 -26 -31 -26h-68v-502h72q29 0 29 -31v-43q0 -27 -31 -27h-258q-29 0 -29 31v41q0 29 33 29h70q0 407 2 473q-22 -64 -180 -399q-9 -21 -29 -21h-33q-19 0 -29 23 q-124 264 -180 397q4 -136 4 -473h74q29 0 29 -31v-43q0 -27 -31 -27h-256q-29 0 -29 31z" />
<glyph unicode="&#x25fc;" horiz-adv-x="1024" d="M0 0v1024h1024v-1024h-1024z" />
</font>
</defs>
</svg>
